<?xml version="1.0" encoding="utf-8"?>
<svg version="1.1" xmlns:xlink="http://www.w3.org/1999/xlink" width="25px" height="27px" xmlns="http://www.w3.org/2000/svg">
  <g transform="matrix(1 0 0 1 -16 -151 )">
    <path d="M 17.4128605769231 20.4835379464286  C 17.8335336538462 19.9963727678571  18.0438701923077 19.3861607142857  18.0438701923077 18.6529017857143  C 18.0438701923077 18.0803571428571  18.0163261217949 17.54296875  17.9612379807692 17.0407366071429  C 17.9061498397436 16.5385044642857  17.8009815705128 16.0337611607143  17.6457331730769 15.5265066964286  C 17.490484775641 15.0192522321429  17.2926682692308 14.5873325892857  17.0522836538462 14.2307477678571  C 16.8118990384615 13.8741629464286  16.4913862179487 13.5828683035714  16.0907451923077 13.3568638392857  C 15.6901041666667 13.130859375  15.234375 13.0178571428571  14.7235576923077 13.0178571428571  C 14.6634615384615 13.0580357142857  14.4956931089744 13.1609933035714  14.2202524038462 13.3267299107143  C 13.9448116987179 13.4924665178571  13.7319711538462 13.6155133928571  13.5817307692308 13.6958705357143  C 13.4314903846154 13.7762276785714  13.2286658653846 13.8766741071429  12.9732572115385 13.9972098214286  C 12.7178485576923 14.1177455357143  12.4724559294872 14.203125  12.2370793269231 14.2533482142857  C 12.001702724359 14.3035714285714  11.7688301282051 14.3286830357143  11.5384615384615 14.3286830357143  C 11.308092948718 14.3286830357143  11.0752203525641 14.3035714285714  10.83984375 14.2533482142857  C 10.6044671474359 14.203125  10.3590745192308 14.1177455357143  10.1036658653846 13.9972098214286  C 9.84825721153846 13.8766741071429  9.64543269230769 13.7762276785714  9.49519230769231 13.6958705357143  C 9.34495192307692 13.6155133928571  9.13211137820513 13.4924665178571  8.85667067307692 13.3267299107143  C 8.58122996794872 13.1609933035714  8.41346153846154 13.0580357142857  8.35336538461538 13.0178571428571  C 7.84254807692308 13.0178571428571  7.38681891025641 13.130859375  6.98617788461538 13.3568638392857  C 6.58553685897436 13.5828683035714  6.26502403846154 13.8741629464286  6.02463942307692 14.2307477678571  C 5.78425480769231 14.5873325892857  5.58643830128205 15.0192522321429  5.43118990384615 15.5265066964286  C 5.27594150641026 16.0337611607143  5.17077323717949 16.5385044642857  5.11568509615385 17.0407366071429  C 5.06059695512821 17.54296875  5.03305288461539 18.0803571428571  5.03305288461539 18.6529017857143  C 5.03305288461539 19.3861607142857  5.24338942307692 19.9963727678571  5.6640625 20.4835379464286  C 6.08473557692308 20.970703125  6.6005608974359 21.2142857142857  7.21153846153846 21.2142857142857  L 15.8653846153846 21.2142857142857  C 16.4763621794872 21.2142857142857  16.9921875 20.970703125  17.4128605769231 20.4835379464286  Z M 14.2953725961538 12.4603794642857  C 15.0615985576923 11.6969866071429  15.4447115384615 10.7779017857143  15.4447115384615 9.703125  C 15.4447115384615 8.61830357142857  15.0615985576923 7.69419642857143  14.2953725961538 6.93080357142857  C 13.5291466346154 6.16741071428571  12.6101762820513 5.78571428571429  11.5384615384615 5.78571428571429  C 10.4667467948718 5.78571428571429  9.54777644230769 6.16741071428571  8.78155048076923 6.93080357142857  C 8.01532451923077 7.69419642857143  7.63221153846154 8.61830357142857  7.63221153846154 9.703125  C 7.63221153846154 10.7779017857143  8.01532451923077 11.6969866071429  8.78155048076923 12.4603794642857  C 9.54777644230769 13.2237723214286  10.4667467948718 13.60546875  11.5384615384615 13.60546875  C 12.6101762820513 13.60546875  13.5291466346154 13.2237723214286  14.2953725961538 12.4603794642857  Z M 24.8647836538462 17.4927455357143  C 24.9549278846154 17.5831473214286  25 17.6986607142857  25 17.8392857142857  L 25 20.7321428571429  C 25 20.8727678571429  24.9549278846154 20.98828125  24.8647836538462 21.0786830357143  C 24.7746394230769 21.1690848214286  24.6594551282051 21.2142857142857  24.5192307692308 21.2142857142857  L 23.0769230769231 21.2142857142857  L 23.0769230769231 24.5892857142857  C 23.0769230769231 25.2522321428571  22.841546474359 25.8197544642857  22.3707932692308 26.2918526785714  C 21.9000400641026 26.7639508928571  21.3341346153846 27  20.6730769230769 27  L 2.40384615384615 27  C 1.74278846153846 27  1.17688301282051 26.7639508928571  0.706129807692308 26.2918526785714  C 0.235376602564103 25.8197544642857  0 25.2522321428571  0 24.5892857142857  L 0 2.41071428571429  C 0 1.74776785714286  0.235376602564103 1.18024553571428  0.706129807692308 0.708147321428572  C 1.17688301282051 0.236049107142857  1.74278846153846 0  2.40384615384615 0  L 20.6730769230769 0  C 21.3341346153846 0  21.9000400641026 0.236049107142857  22.3707932692308 0.708147321428572  C 22.841546474359 1.18024553571428  23.0769230769231 1.74776785714286  23.0769230769231 2.41071428571429  L 23.0769230769231 5.78571428571429  L 24.5192307692308 5.78571428571429  C 24.6594551282051 5.78571428571429  24.7746394230769 5.83091517857143  24.8647836538462 5.92131696428571  C 24.9549278846154 6.01171875  25 6.12723214285714  25 6.26785714285714  L 25 9.16071428571429  C 25 9.30133928571428  24.9549278846154 9.41685267857143  24.8647836538462 9.50725446428571  C 24.7746394230769 9.59765625  24.6594551282051 9.64285714285714  24.5192307692308 9.64285714285714  L 23.0769230769231 9.64285714285714  L 23.0769230769231 11.5714285714286  L 24.5192307692308 11.5714285714286  C 24.6594551282051 11.5714285714286  24.7746394230769 11.6166294642857  24.8647836538462 11.70703125  C 24.9549278846154 11.7974330357143  25 11.9129464285714  25 12.0535714285714  L 25 14.9464285714286  C 25 15.0870535714286  24.9549278846154 15.2025669642857  24.8647836538462 15.29296875  C 24.7746394230769 15.3833705357143  24.6594551282051 15.4285714285714  24.5192307692308 15.4285714285714  L 23.0769230769231 15.4285714285714  L 23.0769230769231 17.3571428571429  L 24.5192307692308 17.3571428571429  C 24.6594551282051 17.3571428571429  24.7746394230769 17.40234375  24.8647836538462 17.4927455357143  Z " fill-rule="nonzero" fill="#082768" stroke="none" transform="matrix(1 0 0 1 16 151 )" />
  </g>
</svg>