<?xml version="1.0" encoding="utf-8"?>
<svg version="1.1" xmlns:xlink="http://www.w3.org/1999/xlink" width="23px" height="19px" xmlns="http://www.w3.org/2000/svg">
  <g transform="matrix(1 0 0 1 -130 -637 )">
    <path d="M 1.76923076923077 14.5892857142857  L 1.76923076923077 17.6428571428571  L 5.75 17.6428571428571  L 5.75 14.5892857142857  L 1.76923076923077 14.5892857142857  Z M 6.63461538461538 14.5892857142857  L 6.63461538461538 17.6428571428571  L 11.0576923076923 17.6428571428571  L 11.0576923076923 14.5892857142857  L 6.63461538461538 14.5892857142857  Z M 1.76923076923077 10.5178571428571  L 1.76923076923077 13.9107142857143  L 5.75 13.9107142857143  L 5.75 10.5178571428571  L 1.76923076923077 10.5178571428571  Z M 6.63461538461538 10.5178571428571  L 6.63461538461538 13.9107142857143  L 11.0576923076923 13.9107142857143  L 11.0576923076923 10.5178571428571  L 6.63461538461538 10.5178571428571  Z M 1.76923076923077 6.78571428571428  L 1.76923076923077 9.83928571428571  L 5.75 9.83928571428571  L 5.75 6.78571428571428  L 1.76923076923077 6.78571428571428  Z M 11.9423076923077 14.5892857142857  L 11.9423076923077 17.6428571428571  L 16.3653846153846 17.6428571428571  L 16.3653846153846 14.5892857142857  L 11.9423076923077 14.5892857142857  Z M 6.63461538461538 6.78571428571428  L 6.63461538461538 9.83928571428571  L 11.0576923076923 9.83928571428571  L 11.0576923076923 6.78571428571428  L 6.63461538461538 6.78571428571428  Z M 17.25 14.5892857142857  L 17.25 17.6428571428571  L 21.2307692307692 17.6428571428571  L 21.2307692307692 14.5892857142857  L 17.25 14.5892857142857  Z M 11.9423076923077 10.5178571428571  L 11.9423076923077 13.9107142857143  L 16.3653846153846 13.9107142857143  L 16.3653846153846 10.5178571428571  L 11.9423076923077 10.5178571428571  Z M 6.94561298076923 4.98856026785714  C 7.03315304487179 4.92140997023809  7.07692307692308 4.84188988095238  7.07692307692308 4.75  L 7.07692307692308 1.69642857142857  C 7.07692307692308 1.60453869047619  7.03315304487179 1.52501860119048  6.94561298076923 1.45786830357143  C 6.85807291666667 1.39071800595238  6.75440705128205 1.35714285714286  6.63461538461538 1.35714285714286  L 5.75 1.35714285714286  C 5.63020833333333 1.35714285714286  5.52654246794872 1.39071800595238  5.43900240384615 1.45786830357143  C 5.35146233974359 1.52501860119048  5.30769230769231 1.60453869047619  5.30769230769231 1.69642857142857  L 5.30769230769231 4.75  C 5.30769230769231 4.84188988095238  5.35146233974359 4.92140997023809  5.43900240384615 4.98856026785714  C 5.52654246794872 5.05571056547619  5.63020833333333 5.08928571428572  5.75 5.08928571428572  L 6.63461538461538 5.08928571428572  C 6.75440705128205 5.08928571428572  6.85807291666667 5.05571056547619  6.94561298076923 4.98856026785714  Z M 17.25 10.5178571428571  L 17.25 13.9107142857143  L 21.2307692307692 13.9107142857143  L 21.2307692307692 10.5178571428571  L 17.25 10.5178571428571  Z M 11.9423076923077 6.78571428571428  L 11.9423076923077 9.83928571428571  L 16.3653846153846 9.83928571428571  L 16.3653846153846 6.78571428571428  L 11.9423076923077 6.78571428571428  Z M 17.25 6.78571428571428  L 17.25 9.83928571428571  L 21.2307692307692 9.83928571428571  L 21.2307692307692 6.78571428571428  L 17.25 6.78571428571428  Z M 17.5609975961538 4.98856026785714  C 17.6485376602564 4.92140997023809  17.6923076923077 4.84188988095238  17.6923076923077 4.75  L 17.6923076923077 1.69642857142857  C 17.6923076923077 1.60453869047619  17.6485376602564 1.52501860119048  17.5609975961538 1.45786830357143  C 17.4734575320513 1.39071800595238  17.3697916666667 1.35714285714286  17.25 1.35714285714286  L 16.3653846153846 1.35714285714286  C 16.245592948718 1.35714285714286  16.1419270833333 1.39071800595238  16.0543870192308 1.45786830357143  C 15.9668469551282 1.52501860119048  15.9230769230769 1.60453869047619  15.9230769230769 1.69642857142857  L 15.9230769230769 4.75  C 15.9230769230769 4.84188988095238  15.9668469551282 4.92140997023809  16.0543870192308 4.98856026785714  C 16.1419270833333 5.05571056547619  16.245592948718 5.08928571428572  16.3653846153846 5.08928571428572  L 17.25 5.08928571428572  C 17.3697916666667 5.08928571428572  17.4734575320513 5.05571056547619  17.5609975961538 4.98856026785714  Z M 22.4747596153846 3.1171875  C 22.8249198717949 3.38578869047619  23 3.70386904761905  23 4.07142857142857  L 23 17.6428571428571  C 23 18.0104166666667  22.8249198717949 18.3284970238095  22.4747596153846 18.5970982142857  C 22.1245993589744 18.8656994047619  21.7099358974359 19  21.2307692307692 19  L 1.76923076923077 19  C 1.2900641025641 19  0.875400641025641 18.8656994047619  0.525240384615385 18.5970982142857  C 0.175080128205128 18.3284970238095  0 18.0104166666667  0 17.6428571428571  L 0 4.07142857142857  C 0 3.70386904761905  0.175080128205128 3.38578869047619  0.525240384615385 3.1171875  C 0.875400641025641 2.84858630952381  1.2900641025641 2.71428571428572  1.76923076923077 2.71428571428572  L 3.53846153846154 2.71428571428572  L 3.53846153846154 1.69642857142857  C 3.53846153846154 1.22991071428572  3.75500801282051 0.830543154761904  4.18810096153846 0.498325892857143  C 4.62119391025641 0.166108630952381  5.14182692307692 0  5.75 0  L 6.63461538461538 0  C 7.24278846153846 0  7.76342147435898 0.166108630952381  8.19651442307692 0.498325892857143  C 8.62960737179487 0.830543154761904  8.84615384615385 1.22991071428572  8.84615384615385 1.69642857142857  L 8.84615384615385 2.71428571428572  L 14.1538461538462 2.71428571428572  L 14.1538461538462 1.69642857142857  C 14.1538461538462 1.22991071428572  14.3703926282051 0.830543154761904  14.8034855769231 0.498325892857143  C 15.236578525641 0.166108630952381  15.7572115384615 0  16.3653846153846 0  L 17.25 0  C 17.8581730769231 0  18.3788060897436 0.166108630952381  18.8118990384615 0.498325892857143  C 19.2449919871795 0.830543154761904  19.4615384615385 1.22991071428572  19.4615384615385 1.69642857142857  L 19.4615384615385 2.71428571428572  L 21.2307692307692 2.71428571428572  C 21.7099358974359 2.71428571428572  22.1245993589744 2.84858630952381  22.4747596153846 3.1171875  Z " fill-rule="nonzero" fill="#ffffff" stroke="none" transform="matrix(1 0 0 1 130 637 )" />
  </g>
</svg>