<?xml version="1.0" encoding="utf-8"?>
<svg version="1.1" xmlns:xlink="http://www.w3.org/1999/xlink" width="360px" height="194px" xmlns="http://www.w3.org/2000/svg">
  <g transform="matrix(1 0 0 1 -7 -226 )">
    <path d="M 7 226  L 367 226  L 367 420  L 7 420  L 7 226  " fill-rule="nonzero" fill="#cccccc" stroke="none" />
    <path d="M 21 240  L 353 240  L 353 406  L 21 406  L 21 240  " fill-rule="nonzero" fill="#ffffff" stroke="none" />
    <path d="M 208.75 284.2  C 200.602 284.2  194.2 277.798  194.2 269.65  C 194.2 261.502  200.602 255.1  208.75 255.1  C 216.898 255.1  223.3 261.502  223.3 269.65  C 223.3 277.798  216.898 284.2  208.75 284.2  " fill-rule="nonzero" fill="#cccccc" stroke="none" />
    <path d="M 26 401  L 26 315.2  L 106.5 276.2  L 219.2 350.56  L 283.6 299.6  L 348 350.56  L 348 401  L 26 401  " fill-rule="nonzero" fill="#169bd5" stroke="none" />
  </g>
</svg>