<?xml version="1.0" encoding="utf-8"?>
<svg version="1.1" xmlns:xlink="http://www.w3.org/1999/xlink" width="24px" height="29px" xmlns="http://www.w3.org/2000/svg">
  <g transform="matrix(1 0 0 1 -21 -313 )">
    <path d="M 23.840625 20.9664713541667  C 23.946875 21.9167751736111  24 22.9268663194444  24 23.9967447916667  C 24 25.3687065972222  23.609375 26.5455729166667  22.828125 27.52734375  C 22.046875 28.5091145833333  21.10625 29  20.00625 29  L 3.99375 29  C 2.89375 29  1.953125 28.5091145833333  1.171875 27.52734375  C 0.390625 26.5455729166667  0 25.3687065972222  0 23.9967447916667  C 0 22.9268663194444  0.0531250000000001 21.9167751736111  0.159375 20.9664713541667  C 0.265625 20.0161675347222  0.4625 19.0595703125  0.75 18.0966796875  C 1.0375 17.1337890625  1.403125 16.3093532986111  1.846875 15.6233723958333  C 2.290625 14.9373914930556  2.878125 14.3772786458333  3.609375 13.9430338541667  C 4.340625 13.5087890625  5.18125 13.2916666666667  6.13125 13.2916666666667  C 7.76875 14.9027777777778  9.725 15.7083333333333  12 15.7083333333333  C 14.275 15.7083333333333  16.23125 14.9027777777778  17.86875 13.2916666666667  C 18.81875 13.2916666666667  19.659375 13.5087890625  20.390625 13.9430338541667  C 21.121875 14.3772786458333  21.709375 14.9373914930556  22.153125 15.6233723958333  C 22.596875 16.3093532986111  22.9625 17.1337890625  23.25 18.0966796875  C 23.5375 19.0595703125  23.734375 20.0161675347222  23.840625 20.9664713541667  Z M 17.090625 2.1240234375  C 18.496875 3.5400390625  19.2 5.24869791666667  19.2 7.25  C 19.2 9.25130208333333  18.496875 10.9599609375  17.090625 12.3759765625  C 15.684375 13.7919921875  13.9875 14.5  12 14.5  C 10.0125 14.5  8.315625 13.7919921875  6.909375 12.3759765625  C 5.503125 10.9599609375  4.8 9.25130208333333  4.8 7.25  C 4.8 5.24869791666667  5.503125 3.5400390625  6.909375 2.1240234375  C 8.315625 0.7080078125  10.0125 0  12 0  C 13.9875 0  15.684375 0.7080078125  17.090625 2.1240234375  Z " fill-rule="nonzero" fill="#082768" stroke="none" transform="matrix(1 0 0 1 21 313 )" />
  </g>
</svg>