<?xml version="1.0" encoding="utf-8"?>
<svg version="1.1" xmlns:xlink="http://www.w3.org/1999/xlink" width="80px" height="80px" xmlns="http://www.w3.org/2000/svg">
  <g transform="matrix(1 0 0 1 -285 -93 )">
    <path d="M 55.8928571428571 70.3794642857143  C 60.8035714285714 67.7752976190476  64.8363095238095 64.2410714285714  67.9910714285714 59.7767857142857  C 67.3363095238095 55.1636904761905  66.0342261904762 51.3318452380952  64.0848214285714 48.28125  C 62.1354166666667 45.2306547619048  59.389880952381 43.4672619047619  55.8482142857143 42.9910714285714  C 53.8541666666667 45.1934523809524  51.4806547619048 46.9122023809524  48.7276785714286 48.1473214285714  C 45.9747023809524 49.3824404761905  43.0654761904762 50  40 50  C 36.9345238095238 50  34.0252976190476 49.3824404761905  31.2723214285714 48.1473214285714  C 28.5193452380952 46.9122023809524  26.1458333333333 45.1934523809524  24.1517857142857 42.9910714285714  C 20.610119047619 43.4672619047619  17.8645833333333 45.2306547619048  15.9151785714286 48.28125  C 13.9657738095238 51.3318452380952  12.6636904761905 55.1636904761905  12.0089285714286 59.7767857142857  C 15.1636904761905 64.2410714285714  19.1964285714286 67.7752976190476  24.1071428571429 70.3794642857143  C 29.0178571428571 72.9836309523809  34.3154761904762 74.2857142857143  40 74.2857142857143  C 45.6845238095238 74.2857142857143  50.9821428571429 72.9836309523809  55.8928571428571 70.3794642857143  Z M 52.1205357142857 40.6919642857143  C 55.46875 37.34375  57.1428571428571 33.3035714285714  57.1428571428571 28.5714285714286  C 57.1428571428571 23.8392857142857  55.46875 19.7991071428571  52.1205357142857 16.4508928571429  C 48.7723214285714 13.1026785714286  44.7321428571429 11.4285714285714  40 11.4285714285714  C 35.2678571428571 11.4285714285714  31.2276785714286 13.1026785714286  27.8794642857143 16.4508928571429  C 24.53125 19.7991071428571  22.8571428571429 23.8392857142857  22.8571428571429 28.5714285714286  C 22.8571428571429 33.3035714285714  24.53125 37.34375  27.8794642857143 40.6919642857143  C 31.2276785714286 44.0401785714286  35.2678571428571 45.7142857142857  40 45.7142857142857  C 44.7321428571429 45.7142857142857  48.7723214285714 44.0401785714286  52.1205357142857 40.6919642857143  Z M 76.8303571428571 24.4642857142857  C 78.9434523809524 29.4047619047619  80 34.5833333333333  80 40  C 80 45.4166666666667  78.9434523809524 50.5877976190476  76.8303571428571 55.5133928571429  C 74.7172619047619 60.4389880952381  71.8824404761905 64.6949404761905  68.3258928571429 68.28125  C 64.7693452380952 71.8675595238095  60.5208333333333 74.7172619047619  55.5803571428571 76.8303571428571  C 50.639880952381 78.9434523809524  45.4464285714286 80  40 80  C 34.5833333333333 80  29.4047619047619 78.9434523809524  24.4642857142857 76.8303571428571  C 19.5238095238095 74.7172619047619  15.2678571428571 71.875  11.6964285714286 68.3035714285714  C 8.125 64.7321428571429  5.28273809523809 60.4761904761905  3.16964285714286 55.5357142857143  C 1.05654761904762 50.5952380952381  0 45.4166666666667  0 40  C 0 34.5833333333333  1.05654761904762 29.4047619047619  3.16964285714286 24.4642857142857  C 5.28273809523809 19.5238095238095  8.125 15.2678571428571  11.6964285714286 11.6964285714286  C 15.2678571428571 8.125  19.5238095238095 5.28273809523809  24.4642857142857 3.16964285714286  C 29.4047619047619 1.05654761904762  34.5833333333333 0  40 0  C 45.4166666666667 0  50.5952380952381 1.05654761904762  55.5357142857143 3.16964285714286  C 60.4761904761905 5.28273809523809  64.7321428571429 8.125  68.3035714285714 11.6964285714286  C 71.875 15.2678571428571  74.7172619047619 19.5238095238095  76.8303571428571 24.4642857142857  Z " fill-rule="nonzero" fill="#082768" stroke="none" transform="matrix(1 0 0 1 285 93 )" />
  </g>
</svg>