<?xml version="1.0" encoding="utf-8"?>
<svg version="1.1" xmlns:xlink="http://www.w3.org/1999/xlink" width="128px" height="47px" xmlns="http://www.w3.org/2000/svg">
  <defs>
    <filter x="195px" y="342px" width="128px" height="47px" filterUnits="userSpaceOnUse" id="filter109">
      <feOffset dx="0" dy="2" in="SourceAlpha" result="shadowOffsetInner" />
      <feGaussianBlur stdDeviation="1" in="shadowOffsetInner" result="shadowGaussian" />
      <feComposite in2="shadowGaussian" operator="atop" in="SourceAlpha" result="shadowComposite" />
      <feColorMatrix type="matrix" values="0 0 0 0 0  0 0 0 0 0  0 0 0 0 0  0 0 0 0.349019607843137 0  " in="shadowComposite" />
    </filter>
    <g id="widget110">
      <path d="M 197.5 346  A 3.5 3.5 0 0 1 201 342.5 L 317 342.5  A 3.5 3.5 0 0 1 320.5 346 L 320.5 381  A 3.5 3.5 0 0 1 317 384.5 L 201 384.5  A 3.5 3.5 0 0 1 197.5 381 L 197.5 346  Z " fill-rule="nonzero" fill="#ffffff" stroke="none" fill-opacity="0.996078431372549" />
      <path d="M 197.5 346  A 3.5 3.5 0 0 1 201 342.5 L 317 342.5  A 3.5 3.5 0 0 1 320.5 346 L 320.5 381  A 3.5 3.5 0 0 1 317 384.5 L 201 384.5  A 3.5 3.5 0 0 1 197.5 381 L 197.5 346  Z " stroke-width="1" stroke="#ff7200" fill="none" />
    </g>
  </defs>
  <g transform="matrix(1 0 0 1 -195 -342 )">
    <use xlink:href="#widget110" filter="url(#filter109)" />
    <use xlink:href="#widget110" />
  </g>
</svg>