<?xml version="1.0" encoding="utf-8"?>
<svg version="1.1" xmlns:xlink="http://www.w3.org/1999/xlink" width="125px" height="125px" xmlns="http://www.w3.org/2000/svg">
  <g transform="matrix(1 0 0 1 -232 -103 )">
    <path d="M 87.3325892857143 109.967912946429  C 95.0055803571429 105.898902529762  101.306733630952 100.376674107143  106.236049107143 93.4012276785714  C 105.212983630952 86.1932663690476  103.178478422619 80.2060081845238  100.132533482143 75.439453125  C 97.0865885416667 70.6728980654762  92.7966889880952 67.9175967261905  87.2628348214286 67.1735491071428  C 84.1471354166667 70.6147693452381  80.4385230654762 73.3003162202381  76.1369977678571 75.2301897321428  C 71.8354724702381 77.1600632440476  67.2898065476191 78.125  62.5 78.125  C 57.7101934523809 78.125  53.1645275297619 77.1600632440476  48.8630022321429 75.2301897321428  C 44.5614769345238 73.3003162202381  40.8528645833333 70.6147693452381  37.7371651785714 67.1735491071428  C 32.2033110119048 67.9175967261905  27.9134114583333 70.6728980654762  24.8674665178571 75.439453125  C 21.821521577381 80.2060081845238  19.7870163690476 86.1932663690476  18.7639508928571 93.4012276785714  C 23.6932663690476 100.376674107143  29.9944196428571 105.898902529762  37.6674107142857 109.967912946429  C 45.3404017857143 114.036923363095  53.6179315476191 116.071428571429  62.5 116.071428571429  C 71.382068452381 116.071428571429  79.6595982142857 114.036923363095  87.3325892857143 109.967912946429  Z M 81.4383370535714 63.5811941964286  C 86.669921875 58.349609375  89.2857142857143 52.0368303571429  89.2857142857143 44.6428571428571  C 89.2857142857143 37.2488839285714  86.669921875 30.9361049107143  81.4383370535714 25.7045200892857  C 76.2067522321429 20.4729352678571  69.8939732142857 17.8571428571429  62.5 17.8571428571429  C 55.1060267857143 17.8571428571429  48.7932477678571 20.4729352678571  43.5616629464286 25.7045200892857  C 38.330078125 30.9361049107143  35.7142857142857 37.2488839285714  35.7142857142857 44.6428571428571  C 35.7142857142857 52.0368303571429  38.330078125 58.349609375  43.5616629464286 63.5811941964286  C 48.7932477678571 68.8127790178572  55.1060267857143 71.4285714285714  62.5 71.4285714285714  C 69.8939732142857 71.4285714285714  76.2067522321429 68.8127790178572  81.4383370535714 63.5811941964286  Z M 120.047433035714 38.2254464285714  C 123.349144345238 45.9449404761905  125 54.0364583333333  125 62.5  C 125 70.9635416666667  123.349144345238 79.0434337797619  120.047433035714 86.7396763392857  C 116.74572172619 94.4359188988095  112.316313244048 101.085844494048  106.759207589286 106.689453125  C 101.202101934524 112.293061755952  94.5638020833333 116.74572172619  86.8443080357143 120.047433035714  C 79.1248139880952 123.349144345238  71.0100446428571 125  62.5 125  C 54.0364583333333 125  45.9449404761905 123.349144345238  38.2254464285714 120.047433035714  C 30.5059523809524 116.74572172619  23.8560267857143 112.3046875  18.2756696428571 106.724330357143  C 12.6953125 101.143973214286  8.25427827380952 94.4940476190476  4.95256696428571 86.7745535714286  C 1.6508556547619 79.0550595238095  0 70.9635416666667  0 62.5  C 0 54.0364583333333  1.6508556547619 45.9449404761905  4.95256696428571 38.2254464285714  C 8.25427827380952 30.5059523809524  12.6953125 23.8560267857143  18.2756696428571 18.2756696428571  C 23.8560267857143 12.6953125  30.5059523809524 8.25427827380952  38.2254464285714 4.95256696428571  C 45.9449404761905 1.6508556547619  54.0364583333333 0  62.5 0  C 70.9635416666667 0  79.0550595238095 1.6508556547619  86.7745535714286 4.95256696428571  C 94.4940476190476 8.25427827380952  101.143973214286 12.6953125  106.724330357143 18.2756696428571  C 112.3046875 23.8560267857143  116.74572172619 30.5059523809524  120.047433035714 38.2254464285714  Z " fill-rule="nonzero" fill="#082768" stroke="none" transform="matrix(1 0 0 1 232 103 )" />
  </g>
</svg>