<?xml version="1.0" encoding="utf-8"?>
<svg version="1.1" xmlns:xlink="http://www.w3.org/1999/xlink" width="28px" height="26px" xmlns="http://www.w3.org/2000/svg">
  <g transform="matrix(1 0 0 1 -17 -151 )">
    <path d="M 7.46666666666667 9.28571428571428  C 7.46666666666667 10.6302083333333  7.86041666666667 11.8683035714286  8.64791666666667 13  C 7.07291666666667 13.0483630952381  5.78472222222222 13.6674107142857  4.78333333333333 14.8571428571429  L 2.82916666666667 14.8571428571429  C 2.03194444444444 14.8571428571429  1.36111111111111 14.6612723214286  0.816666666666667 14.26953125  C 0.272222222222222 13.8777901785714  0 13.3046875  0 12.5502232142857  C 0 9.13578869047619  0.602777777777778 7.42857142857143  1.80833333333333 7.42857142857143  C 1.86666666666667 7.42857142857143  2.078125 7.53013392857143  2.44270833333333 7.73325892857143  C 2.80729166666667 7.93638392857143  3.28125 8.14192708333333  3.86458333333333 8.34988839285714  C 4.44791666666667 8.55784970238095  5.02638888888889 8.66183035714286  5.6 8.66183035714286  C 6.25138888888889 8.66183035714286  6.89791666666667 8.55059523809524  7.53958333333333 8.328125  C 7.49097222222222 8.6860119047619  7.46666666666667 9.00520833333333  7.46666666666667 9.28571428571428  Z M 24.215625 20.7405133928571  C 24.2496527777778 21.2289806547619  24.2666666666667 21.7295386904762  24.2666666666667 22.2421875  C 24.2666666666667 23.4029017857143  23.9118055555556 24.3193824404762  23.2020833333333 24.9916294642857  C 22.4923611111111 25.6638764880952  21.5493055555556 26  20.3729166666667 26  L 7.62708333333333 26  C 6.45069444444445 26  5.50763888888889 25.6638764880952  4.79791666666667 24.9916294642857  C 4.08819444444444 24.3193824404762  3.73333333333333 23.4029017857143  3.73333333333333 22.2421875  C 3.73333333333333 21.7295386904762  3.75034722222222 21.2289806547619  3.784375 20.7405133928571  C 3.81840277777778 20.2520461309524  3.88645833333333 19.7248883928571  3.98854166666667 19.1590401785714  C 4.090625 18.5931919642857  4.21944444444445 18.0684523809524  4.375 17.5848214285714  C 4.53055555555556 17.1011904761905  4.73958333333333 16.629650297619  5.00208333333333 16.1702008928571  C 5.26458333333333 15.7107514880952  5.56597222222222 15.3190104166667  5.90625 14.9949776785714  C 6.24652777777778 14.6709449404762  6.66215277777778 14.4122023809524  7.153125 14.21875  C 7.64409722222222 14.0252976190476  8.18611111111111 13.9285714285714  8.77916666666667 13.9285714285714  C 8.87638888888889 13.9285714285714  9.08541666666667 14.0325520833333  9.40625 14.2405133928571  C 9.72708333333333 14.448474702381  10.0819444444444 14.6806175595238  10.4708333333333 14.9369419642857  C 10.8597222222222 15.1932663690476  11.3798611111111 15.4254092261905  12.03125 15.6333705357143  C 12.6826388888889 15.8413318452381  13.3388888888889 15.9453125  14 15.9453125  C 14.6611111111111 15.9453125  15.3173611111111 15.8413318452381  15.96875 15.6333705357143  C 16.6201388888889 15.4254092261905  17.1402777777778 15.1932663690476  17.5291666666667 14.9369419642857  C 17.9180555555556 14.6806175595238  18.2729166666667 14.448474702381  18.59375 14.2405133928571  C 18.9145833333333 14.0325520833333  19.1236111111111 13.9285714285714  19.2208333333333 13.9285714285714  C 19.8138888888889 13.9285714285714  20.3559027777778 14.0252976190476  20.846875 14.21875  C 21.3378472222222 14.4122023809524  21.7534722222222 14.6709449404762  22.09375 14.9949776785714  C 22.4340277777778 15.3190104166667  22.7354166666667 15.7107514880952  22.9979166666667 16.1702008928571  C 23.2604166666667 16.629650297619  23.4694444444444 17.1011904761905  23.625 17.5848214285714  C 23.7805555555556 18.0684523809524  23.909375 18.5931919642857  24.0114583333333 19.1590401785714  C 24.1135416666667 19.7248883928571  24.1815972222222 20.2520461309524  24.215625 20.7405133928571  Z M 8.23958333333333 1.08816964285714  C 8.96875 1.81361607142857  9.33333333333333 2.68898809523809  9.33333333333333 3.71428571428572  C 9.33333333333333 4.73958333333333  8.96875 5.61495535714286  8.23958333333333 6.34040178571428  C 7.51041666666667 7.06584821428572  6.63055555555556 7.42857142857143  5.6 7.42857142857143  C 4.56944444444445 7.42857142857143  3.68958333333333 7.06584821428572  2.96041666666667 6.34040178571428  C 2.23125 5.61495535714286  1.86666666666667 4.73958333333333  1.86666666666667 3.71428571428572  C 1.86666666666667 2.68898809523809  2.23125 1.81361607142857  2.96041666666667 1.08816964285714  C 3.68958333333333 0.362723214285716  4.56944444444445 0  5.6 0  C 6.63055555555556 0  7.51041666666667 0.362723214285716  8.23958333333333 1.08816964285714  Z M 17.959375 5.34654017857143  C 19.053125 6.43470982142857  19.6 7.74776785714286  19.6 9.28571428571428  C 19.6 10.8236607142857  19.053125 12.13671875  17.959375 13.2248883928571  C 16.865625 14.3130580357143  15.5458333333333 14.8571428571429  14 14.8571428571429  C 12.4541666666667 14.8571428571429  11.134375 14.3130580357143  10.040625 13.2248883928571  C 8.946875 12.13671875  8.4 10.8236607142857  8.4 9.28571428571428  C 8.4 7.74776785714286  8.946875 6.43470982142857  10.040625 5.34654017857143  C 11.134375 4.25837053571428  12.4541666666667 3.71428571428572  14 3.71428571428572  C 15.5458333333333 3.71428571428572  16.865625 4.25837053571428  17.959375 5.34654017857143  Z M 26.1916666666667 7.42857142857143  C 27.3972222222222 7.42857142857143  28 9.13578869047619  28 12.5502232142857  C 28 13.3046875  27.7277777777778 13.8777901785714  27.1833333333333 14.26953125  C 26.6388888888889 14.6612723214286  25.9680555555556 14.8571428571429  25.1708333333333 14.8571428571429  L 23.2166666666667 14.8571428571429  C 22.2152777777778 13.6674107142857  20.9270833333333 13.0483630952381  19.3520833333333 13  C 20.1395833333333 11.8683035714286  20.5333333333333 10.6302083333333  20.5333333333333 9.28571428571428  C 20.5333333333333 9.00520833333333  20.5090277777778 8.6860119047619  20.4604166666667 8.328125  C 21.1020833333333 8.55059523809524  21.7486111111111 8.66183035714286  22.4 8.66183035714286  C 22.9736111111111 8.66183035714286  23.5520833333333 8.55784970238095  24.1354166666667 8.34988839285714  C 24.71875 8.14192708333333  25.1927083333333 7.93638392857143  25.5572916666667 7.73325892857143  C 25.921875 7.53013392857143  26.1333333333333 7.42857142857143  26.1916666666667 7.42857142857143  Z M 25.0395833333333 1.08816964285714  C 25.76875 1.81361607142857  26.1333333333333 2.68898809523809  26.1333333333333 3.71428571428572  C 26.1333333333333 4.73958333333333  25.76875 5.61495535714286  25.0395833333333 6.34040178571428  C 24.3104166666667 7.06584821428572  23.4305555555556 7.42857142857143  22.4 7.42857142857143  C 21.3694444444444 7.42857142857143  20.4895833333333 7.06584821428572  19.7604166666667 6.34040178571428  C 19.03125 5.61495535714286  18.6666666666667 4.73958333333333  18.6666666666667 3.71428571428572  C 18.6666666666667 2.68898809523809  19.03125 1.81361607142857  19.7604166666667 1.08816964285714  C 20.4895833333333 0.362723214285716  21.3694444444444 0  22.4 0  C 23.4305555555556 0  24.3104166666667 0.362723214285716  25.0395833333333 1.08816964285714  Z " fill-rule="nonzero" fill="#ff7200" stroke="none" transform="matrix(1 0 0 1 17 151 )" />
  </g>
</svg>