<?xml version="1.0" encoding="utf-8"?>
<svg version="1.1" xmlns:xlink="http://www.w3.org/1999/xlink" width="12px" height="12px" viewBox="45 425.5  12 12" xmlns="http://www.w3.org/2000/svg">
  <path d="M 45.5 428.5  A 2.5 2.5 0 0 1 48 426 L 54 426  A 2.5 2.5 0 0 1 56.5 428.5 L 56.5 434.5  A 2.5 2.5 0 0 1 54 437 L 48 437  A 2.5 2.5 0 0 1 45.5 434.5 L 45.5 428.5  Z " fill-rule="nonzero" fill="#ffffff" stroke="none" />
  <path d="M 45.5 428.5  A 2.5 2.5 0 0 1 48 426 L 54 426  A 2.5 2.5 0 0 1 56.5 428.5 L 56.5 434.5  A 2.5 2.5 0 0 1 54 437 L 48 437  A 2.5 2.5 0 0 1 45.5 434.5 L 45.5 428.5  Z " stroke-width="1" stroke="#797979" fill="none" />
  <path d="M 47.5714285714286 431.5  L 50.1428571428571 434.071428571429  " stroke-width="2.57142857142857" stroke="#797979" fill="none" />
  <path d="M 50.1428571428571 434.071428571429  L 54.4285714285714 428.071428571429  " stroke-width="2.57142857142857" stroke="#797979" fill="none" />
</svg>