<?xml version="1.0" encoding="utf-8"?>
<svg version="1.1" xmlns:xlink="http://www.w3.org/1999/xlink" width="39px" height="39px" xmlns="http://www.w3.org/2000/svg">
  <g transform="matrix(1 0 0 1 -28 -545 )">
    <path d="M 11.9263392857143 1.54520089285714  C 14.3348214285714 0.515066964285714  16.859375 0  19.5 0  C 22.140625 0  24.6651785714286 0.515066964285714  27.0736607142857 1.54520089285714  C 29.4821428571429 2.57533482142857  31.5569196428571 3.9609375  33.2979910714286 5.70200892857143  C 35.0390625 7.44308035714286  36.4246651785714 9.51785714285714  37.4547991071429 11.9263392857143  C 38.4849330357143 14.3348214285714  39 16.859375  39 19.5  C 39 22.1261160714286  38.4885602678571 24.6434151785714  37.4656808035714 27.0518973214286  C 36.4428013392857 29.4603794642857  35.0608258928571 31.53515625  33.3197544642857 33.2762276785714  C 31.5786830357143 35.0172991071429  29.50390625 36.4065290178571  27.0954241071429 37.4439174107143  C 24.6869419642857 38.4813058035714  22.1551339285714 39  19.5 39  C 16.8448660714286 39  14.3130580357143 38.4849330357143  11.9045758928571 37.4547991071429  C 9.49609375 36.4246651785714  7.42494419642857 35.0354352678571  5.69112723214286 33.287109375  C 3.95731026785714 31.5387834821429  2.57533482142857 29.4640066964286  1.54520089285714 27.0627790178571  C 0.515066964285714 24.6615513392857  0 22.140625  0 19.5  C 0 16.859375  0.515066964285714 14.3348214285714  1.54520089285714 11.9263392857143  C 2.57533482142857 9.51785714285714  3.9609375 7.44308035714286  5.70200892857143 5.70200892857143  C 7.44308035714286 3.9609375  9.51785714285714 2.57533482142857  11.9263392857143 1.54520089285714  Z M 26.3119419642857 22.2857142857143  C 29.7940848214286 22.2857142857143  32.0139508928571 24.6579241071429  32.9715401785714 29.40234375  C 35.1333705357143 26.4280133928571  36.2142857142857 23.1272321428571  36.2142857142857 19.5  C 36.2142857142857 17.2366071428571  35.7717633928571 15.0747767857143  34.88671875 13.0145089285714  C 34.0016741071429 10.9542410714286  32.8119419642857 9.17689732142857  31.3175223214286 7.68247767857143  C 29.8231026785714 6.18805803571429  28.0457589285714 4.99832589285714  25.9854910714286 4.11328125  C 23.9252232142857 3.22823660714286  21.7633928571429 2.78571428571428  19.5 2.78571428571428  C 17.2366071428571 2.78571428571428  15.0747767857143 3.22823660714286  13.0145089285714 4.11328125  C 10.9542410714286 4.99832589285714  9.17689732142857 6.18805803571429  7.68247767857143 7.68247767857143  C 6.18805803571429 9.17689732142857  4.99832589285714 10.9542410714286  4.11328125 13.0145089285714  C 3.22823660714286 15.0747767857143  2.78571428571429 17.2366071428571  2.78571428571429 19.5  C 2.78571428571429 23.1272321428571  3.86662946428571 26.4280133928571  6.02845982142857 29.40234375  C 6.98604910714286 24.6579241071429  9.20591517857143 22.2857142857143  12.6880580357143 22.2857142857143  C 14.5887276785714 24.1428571428571  16.859375 25.0714285714286  19.5 25.0714285714286  C 22.140625 25.0714285714286  24.4112723214286 24.1428571428571  26.3119419642857 22.2857142857143  Z M 25.4087611607143 21.2301897321429  C 27.041015625 19.5979352678571  27.8571428571429 17.6283482142857  27.8571428571429 15.3214285714286  C 27.8571428571429 13.0145089285714  27.041015625 11.044921875  25.4087611607143 9.41266741071428  C 23.7765066964286 7.78041294642857  21.8069196428571 6.96428571428572  19.5 6.96428571428572  C 17.1930803571429 6.96428571428572  15.2234933035714 7.78041294642857  13.5912388392857 9.41266741071428  C 11.958984375 11.044921875  11.1428571428571 13.0145089285714  11.1428571428571 15.3214285714286  C 11.1428571428571 17.6283482142857  11.958984375 19.5979352678571  13.5912388392857 21.2301897321429  C 15.2234933035714 22.8624441964286  17.1930803571429 23.6785714285714  19.5 23.6785714285714  C 21.8069196428571 23.6785714285714  23.7765066964286 22.8624441964286  25.4087611607143 21.2301897321429  Z " fill-rule="nonzero" fill="#0c0a62" stroke="none" transform="matrix(1 0 0 1 28 545 )" />
  </g>
</svg>