<?xml version="1.0" encoding="utf-8"?>
<svg version="1.1" xmlns:xlink="http://www.w3.org/1999/xlink" width="39px" height="26px" xmlns="http://www.w3.org/2000/svg">
  <g transform="matrix(1 0 0 1 -28 -625 )">
    <path d="M 11.9263392857143 1.03013392857143  C 14.3348214285714 0.343377976190476  16.859375 0  19.5 0  C 22.140625 0  24.6651785714286 0.343377976190476  27.0736607142857 1.03013392857143  C 29.4821428571429 1.71688988095238  31.5569196428571 2.640625  33.2979910714286 3.80133928571428  C 35.0390625 4.96205357142857  36.4246651785714 6.34523809523809  37.4547991071429 7.95089285714286  C 38.4849330357143 9.55654761904762  39 11.2395833333333  39 13  C 39 14.750744047619  38.4885602678571 16.428943452381  37.4656808035714 18.0345982142857  C 36.4428013392857 19.6402529761905  35.0608258928571 21.0234375  33.3197544642857 22.1841517857143  C 31.5786830357143 23.3448660714286  29.50390625 24.2710193452381  27.0954241071429 24.9626116071429  C 24.6869419642857 25.6542038690476  22.1551339285714 26  19.5 26  C 16.8448660714286 26  14.3130580357143 25.6566220238095  11.9045758928571 24.9698660714286  C 9.49609375 24.2831101190476  7.42494419642857 23.3569568452381  5.69112723214286 22.19140625  C 3.95731026785714 21.0258556547619  2.57533482142857 19.6426711309524  1.54520089285714 18.0418526785714  C 0.515066964285714 16.4410342261905  0 14.7604166666667  0 13  C 0 11.2395833333333  0.515066964285714 9.55654761904762  1.54520089285714 7.95089285714286  C 2.57533482142857 6.34523809523809  3.9609375 4.96205357142857  5.70200892857143 3.80133928571428  C 7.44308035714286 2.640625  9.51785714285714 1.71688988095238  11.9263392857143 1.03013392857143  Z M 26.3119419642857 14.8571428571429  C 29.7940848214286 14.8571428571429  32.0139508928571 16.4386160714286  32.9715401785714 19.6015625  C 35.1333705357143 17.6186755952381  36.2142857142857 15.4181547619048  36.2142857142857 13  C 36.2142857142857 11.4910714285714  35.7717633928571 10.0498511904762  34.88671875 8.67633928571428  C 34.0016741071429 7.30282738095238  32.8119419642857 6.11793154761904  31.3175223214286 5.12165178571428  C 29.8231026785714 4.12537202380952  28.0457589285714 3.33221726190476  25.9854910714286 2.7421875  C 23.9252232142857 2.15215773809524  21.7633928571429 1.85714285714286  19.5 1.85714285714286  C 17.2366071428571 1.85714285714286  15.0747767857143 2.15215773809524  13.0145089285714 2.7421875  C 10.9542410714286 3.33221726190476  9.17689732142857 4.12537202380952  7.68247767857143 5.12165178571428  C 6.18805803571429 6.11793154761904  4.99832589285714 7.30282738095238  4.11328125 8.67633928571428  C 3.22823660714286 10.0498511904762  2.78571428571429 11.4910714285714  2.78571428571429 13  C 2.78571428571429 15.4181547619048  3.86662946428571 17.6186755952381  6.02845982142857 19.6015625  C 6.98604910714286 16.4386160714286  9.20591517857143 14.8571428571429  12.6880580357143 14.8571428571429  C 14.5887276785714 16.0952380952381  16.859375 16.7142857142857  19.5 16.7142857142857  C 22.140625 16.7142857142857  24.4112723214286 16.0952380952381  26.3119419642857 14.8571428571429  Z M 25.4087611607143 14.1534598214286  C 27.041015625 13.0652901785714  27.8571428571429 11.7522321428571  27.8571428571429 10.2142857142857  C 27.8571428571429 8.67633928571428  27.041015625 7.36328125  25.4087611607143 6.27511160714286  C 23.7765066964286 5.18694196428572  21.8069196428571 4.64285714285714  19.5 4.64285714285714  C 17.1930803571429 4.64285714285714  15.2234933035714 5.18694196428572  13.5912388392857 6.27511160714286  C 11.958984375 7.36328125  11.1428571428571 8.67633928571428  11.1428571428571 10.2142857142857  C 11.1428571428571 11.7522321428571  11.958984375 13.0652901785714  13.5912388392857 14.1534598214286  C 15.2234933035714 15.2416294642857  17.1930803571429 15.7857142857143  19.5 15.7857142857143  C 21.8069196428571 15.7857142857143  23.7765066964286 15.2416294642857  25.4087611607143 14.1534598214286  Z " fill-rule="nonzero" fill="#0c0a62" stroke="none" transform="matrix(1 0 0 1 28 625 )" />
  </g>
</svg>