<?xml version="1.0" encoding="utf-8"?>
<svg version="1.1" xmlns:xlink="http://www.w3.org/1999/xlink" width="40px" height="27px" xmlns="http://www.w3.org/2000/svg">
  <g transform="matrix(1 0 0 1 -28 -624 )">
    <path d="M 32.96875 11.443359375  C 33.28125 11.232421875  33.4375 10.96875  33.4375 10.65234375  C 33.4375 10.32421875  33.28125 10.0546875  32.96875 9.84375  L 30.5989583333333 8.26171875  C 30.2690972222222 8.0390625  29.8784722222222 7.927734375  29.4270833333333 7.927734375  C 28.9756944444444 7.927734375  28.5850694444444 8.0390625  28.2552083333333 8.26171875  L 17.6302083333333 15.416015625  L 11.7447916666667 11.443359375  C 11.4149305555556 11.220703125  11.0243055555556 11.109375  10.5729166666667 11.109375  C 10.1215277777778 11.109375  9.73090277777778 11.220703125  9.40104166666667 11.443359375  L 7.03125 13.025390625  C 6.71875 13.236328125  6.5625 13.505859375  6.5625 13.833984375  C 6.5625 14.150390625  6.71875 14.4140625  7.03125 14.625  L 16.4583333333333 20.98828125  C 16.7881944444444 21.2109375  17.1788194444444 21.322265625  17.6302083333333 21.322265625  C 18.0989583333333 21.322265625  18.4982638888889 21.2109375  18.828125 20.98828125  L 32.96875 11.443359375  Z M 37.3177083333333 6.7236328125  C 39.1059027777778 8.7919921875  40 11.05078125  40 13.5  C 40 15.94921875  39.1059027777778 18.2080078125  37.3177083333333 20.2763671875  C 35.5295138888889 22.3447265625  33.1032986111111 23.982421875  30.0390625 25.189453125  C 26.9748263888889 26.396484375  23.6284722222222 27  20 27  C 16.3715277777778 27  13.0251736111111 26.396484375  9.9609375 25.189453125  C 6.89670138888889 23.982421875  4.47048611111111 22.3447265625  2.68229166666667 20.2763671875  C 0.894097222222222 18.2080078125  0 15.94921875  0 13.5  C 0 11.05078125  0.894097222222222 8.7919921875  2.68229166666667 6.7236328125  C 4.47048611111111 4.6552734375  6.89670138888889 3.017578125  9.9609375 1.810546875  C 13.0251736111111 0.603515624999998  16.3715277777778 0  20 0  C 23.6284722222222 0  26.9748263888889 0.603515624999998  30.0390625 1.810546875  C 33.1032986111111 3.017578125  35.5295138888889 4.6552734375  37.3177083333333 6.7236328125  Z " fill-rule="nonzero" fill="#08a000" stroke="none" transform="matrix(1 0 0 1 28 624 )" />
  </g>
</svg>