<?xml version="1.0" encoding="utf-8"?>
<svg version="1.1" xmlns:xlink="http://www.w3.org/1999/xlink" width="99px" height="99px" xmlns="http://www.w3.org/2000/svg">
  <g transform="matrix(1 0 0 1 -28 -130 )">
    <path d="M 69.1674107142857 87.0945870535714  C 75.2444196428572 83.8719308035714  80.2349330357143 79.4983258928571  84.1389508928572 73.9737723214286  C 83.3286830357143 68.2650669642857  81.7173549107143 63.5231584821429  79.3049665178572 59.748046875  C 76.892578125 55.9729352678571  73.4949776785714 53.7907366071428  69.1121651785714 53.2014508928571  C 66.64453125 55.9268973214286  63.7073102678571 58.0538504464286  60.3005022321429 59.5823102678571  C 56.8936941964286 61.1107700892857  53.2935267857143 61.875  49.5 61.875  C 45.7064732142857 61.875  42.1063058035714 61.1107700892857  38.6994977678571 59.5823102678571  C 35.2926897321429 58.0538504464286  32.35546875 55.9268973214286  29.8878348214286 53.2014508928571  C 25.5050223214286 53.7907366071428  22.107421875 55.9729352678571  19.6950334821429 59.748046875  C 17.2826450892857 63.5231584821429  15.6713169642857 68.2650669642857  14.8610491071429 73.9737723214286  C 18.7650669642857 79.4983258928571  23.7555803571429 83.8719308035714  29.8325892857143 87.0945870535714  C 35.9095982142857 90.3172433035714  42.4654017857143 91.9285714285714  49.5 91.9285714285714  C 56.5345982142857 91.9285714285714  63.0904017857143 90.3172433035714  69.1674107142857 87.0945870535714  Z M 64.4991629464286 50.3563058035714  C 68.642578125 46.212890625  70.7142857142857 41.2131696428571  70.7142857142857 35.3571428571429  C 70.7142857142857 29.5011160714286  68.642578125 24.5013950892857  64.4991629464286 20.3579799107143  C 60.3557477678571 16.2145647321429  55.3560267857143 14.1428571428571  49.5 14.1428571428571  C 43.6439732142857 14.1428571428571  38.6442522321429 16.2145647321429  34.5008370535714 20.3579799107143  C 30.357421875 24.5013950892857  28.2857142857143 29.5011160714286  28.2857142857143 35.3571428571429  C 28.2857142857143 41.2131696428571  30.357421875 46.212890625  34.5008370535714 50.3563058035714  C 38.6442522321429 54.4997209821429  43.6439732142857 56.5714285714286  49.5 56.5714285714286  C 55.3560267857143 56.5714285714286  60.3557477678571 54.4997209821429  64.4991629464286 50.3563058035714  Z M 95.0775669642857 30.2745535714286  C 97.6925223214286 36.3883928571428  99 42.796875  99 49.5  C 99 56.203125  97.6925223214286 62.6023995535714  95.0775669642857 68.6978236607143  C 92.4626116071429 74.7932477678571  88.9545200892857 80.0599888392857  84.5532924107143 84.498046875  C 80.1520647321429 88.9361049107143  74.89453125 92.4626116071429  68.7806919642857 95.0775669642857  C 62.6668526785714 97.6925223214286  56.2399553571429 99  49.5 99  C 42.796875 99  36.3883928571429 97.6925223214286  30.2745535714286 95.0775669642857  C 24.1607142857143 92.4626116071429  18.8939732142857 88.9453125  14.4743303571429 84.5256696428571  C 10.0546875 80.1060267857143  6.53738839285714 74.8392857142857  3.92243303571429 68.7254464285714  C 1.30747767857143 62.6116071428571  0 56.203125  0 49.5  C 0 42.796875  1.30747767857143 36.3883928571428  3.92243303571429 30.2745535714286  C 6.53738839285714 24.1607142857143  10.0546875 18.8939732142857  14.4743303571429 14.4743303571429  C 18.8939732142857 10.0546875  24.1607142857143 6.53738839285714  30.2745535714286 3.92243303571428  C 36.3883928571429 1.30747767857143  42.796875 0  49.5 0  C 56.203125 0  62.6116071428572 1.30747767857143  68.7254464285714 3.92243303571428  C 74.8392857142857 6.53738839285714  80.1060267857143 10.0546875  84.5256696428572 14.4743303571429  C 88.9453125 18.8939732142857  92.4626116071429 24.1607142857143  95.0775669642857 30.2745535714286  Z " fill-rule="nonzero" fill="#082768" stroke="none" transform="matrix(1 0 0 1 28 130 )" />
  </g>
</svg>