<?xml version="1.0" encoding="utf-8"?>
<svg version="1.1" xmlns:xlink="http://www.w3.org/1999/xlink" width="93px" height="93px" xmlns="http://www.w3.org/2000/svg">
  <g transform="matrix(1 0 0 1 -44 -115 )">
    <path d="M 64.9754464285714 81.8161272321429  C 70.6841517857143 78.7887834821429  75.3722098214286 74.6802455357143  79.0396205357143 69.4905133928571  C 78.2784598214286 64.1277901785714  76.7647879464286 59.6732700892857  74.4986049107143 56.126953125  C 72.232421875 52.5806361607143  69.0407366071429 50.5306919642857  64.9235491071429 49.9771205357143  C 62.60546875 52.5373883928571  59.8462611607143 54.5354352678571  56.6459263392857 55.9712611607143  C 53.4455915178572 57.4070870535714  50.0636160714286 58.125  46.5 58.125  C 42.9363839285714 58.125  39.5544084821429 57.4070870535714  36.3540736607143 55.9712611607143  C 33.1537388392857 54.5354352678571  30.39453125 52.5373883928571  28.0764508928571 49.9771205357143  C 23.9592633928571 50.5306919642857  20.767578125 52.5806361607143  18.5013950892857 56.126953125  C 16.2352120535714 59.6732700892857  14.7215401785714 64.1277901785714  13.9603794642857 69.4905133928571  C 17.6277901785714 74.6802455357143  22.3158482142857 78.7887834821429  28.0245535714286 81.8161272321429  C 33.7332589285714 84.8434709821428  39.8917410714286 86.3571428571429  46.5 86.3571428571429  C 53.1082589285714 86.3571428571429  59.2667410714286 84.8434709821428  64.9754464285714 81.8161272321429  Z M 60.5901227678571 47.3044084821429  C 64.482421875 43.412109375  66.4285714285714 38.7154017857143  66.4285714285714 33.2142857142857  C 66.4285714285714 27.7131696428571  64.482421875 23.0164620535714  60.5901227678571 19.1241629464286  C 56.6978236607143 15.2318638392857  52.0011160714286 13.2857142857143  46.5 13.2857142857143  C 40.9988839285714 13.2857142857143  36.3021763392857 15.2318638392857  32.4098772321429 19.1241629464286  C 28.517578125 23.0164620535714  26.5714285714286 27.7131696428571  26.5714285714286 33.2142857142857  C 26.5714285714286 38.7154017857143  28.517578125 43.412109375  32.4098772321429 47.3044084821429  C 36.3021763392857 51.1967075892857  40.9988839285714 53.1428571428571  46.5 53.1428571428571  C 52.0011160714286 53.1428571428571  56.6978236607143 51.1967075892857  60.5901227678571 47.3044084821429  Z M 89.3152901785714 28.4397321428571  C 91.7717633928572 34.1830357142857  93 40.203125  93 46.5  C 93 52.796875  91.7717633928572 58.8083147321428  89.3152901785714 64.5343191964286  C 86.8588169642857 70.2603236607143  83.5633370535714 75.2078683035714  79.4288504464286 79.376953125  C 75.2943638392857 83.5460379464286  70.35546875 86.8588169642857  64.6121651785714 89.3152901785714  C 58.8688616071429 91.7717633928571  52.8314732142857 93  46.5 93  C 40.203125 93  34.1830357142857 91.7717633928571  28.4397321428571 89.3152901785714  C 22.6964285714286 86.8588169642857  17.7488839285714 83.5546875  13.5970982142857 79.4029017857143  C 9.4453125 75.2511160714286  6.14118303571429 70.3035714285714  3.68470982142857 64.5602678571429  C 1.22823660714286 58.8169642857143  0 52.796875  0 46.5  C 0 40.203125  1.22823660714286 34.1830357142857  3.68470982142857 28.4397321428571  C 6.14118303571429 22.6964285714286  9.4453125 17.7488839285714  13.5970982142857 13.5970982142857  C 17.7488839285714 9.4453125  22.6964285714286 6.14118303571428  28.4397321428571 3.68470982142857  C 34.1830357142857 1.22823660714286  40.203125 0  46.5 0  C 52.796875 0  58.8169642857143 1.22823660714286  64.5602678571429 3.68470982142857  C 70.3035714285714 6.14118303571428  75.2511160714286 9.4453125  79.4029017857143 13.5970982142857  C 83.5546875 17.7488839285714  86.8588169642857 22.6964285714286  89.3152901785714 28.4397321428571  Z " fill-rule="nonzero" fill="#082768" stroke="none" transform="matrix(1 0 0 1 44 115 )" />
  </g>
</svg>