<?xml version="1.0" encoding="utf-8"?>
<svg version="1.1" xmlns:xlink="http://www.w3.org/1999/xlink" width="27px" height="25px" xmlns="http://www.w3.org/2000/svg">
  <g transform="matrix(1 0 0 1 -25 -376 )">
    <path d="M 7.2 8.92857142857143  C 7.2 10.2213541666667  7.5796875 11.4118303571429  8.3390625 12.5  C 6.8203125 12.5465029761905  5.578125 13.1417410714286  4.6125 14.2857142857143  L 2.728125 14.2857142857143  C 1.959375 14.2857142857143  1.3125 14.0973772321429  0.7875 13.720703125  C 0.2625 13.3440290178571  0 12.79296875  0 12.0675223214286  C 0 8.78441220238095  0.58125 7.14285714285714  1.74375 7.14285714285714  C 1.8 7.14285714285714  2.00390625 7.24051339285714  2.35546875 7.43582589285714  C 2.70703125 7.63113839285714  3.1640625 7.82877604166667  3.7265625 8.02873883928572  C 4.2890625 8.22870163690476  4.846875 8.32868303571428  5.4 8.32868303571428  C 6.028125 8.32868303571428  6.6515625 8.22172619047619  7.2703125 8.0078125  C 7.2234375 8.35193452380952  7.2 8.65885416666667  7.2 8.92857142857143  Z M 23.35078125 19.9428013392857  C 23.38359375 20.4124813988095  23.4 20.893787202381  23.4 21.38671875  C 23.4 22.5027901785714  23.0578125 23.384021577381  22.3734375 24.0304129464286  C 21.6890625 24.6768043154762  20.7796875 25  19.6453125 25  L 7.3546875 25  C 6.2203125 25  5.3109375 24.6768043154762  4.6265625 24.0304129464286  C 3.9421875 23.384021577381  3.6 22.5027901785714  3.6 21.38671875  C 3.6 20.893787202381  3.61640625 20.4124813988095  3.64921875 19.9428013392857  C 3.68203125 19.4731212797619  3.74765625 18.9662388392857  3.84609375 18.4221540178571  C 3.94453125 17.8780691964286  4.06875 17.3735119047619  4.21875 16.9084821428571  C 4.36875 16.4434523809524  4.5703125 15.9900483630952  4.8234375 15.5482700892857  C 5.0765625 15.1064918154762  5.3671875 14.7298177083333  5.6953125 14.4182477678571  C 6.0234375 14.106677827381  6.42421875 13.8578869047619  6.89765625 13.671875  C 7.37109375 13.4858630952381  7.89375 13.3928571428571  8.465625 13.3928571428571  C 8.559375 13.3928571428571  8.7609375 13.4928385416667  9.0703125 13.6928013392857  C 9.3796875 13.8927641369048  9.721875 14.115978422619  10.096875 14.3624441964286  C 10.471875 14.6089099702381  10.9734375 14.8321242559524  11.6015625 15.0320870535714  C 12.2296875 15.2320498511905  12.8625 15.33203125  13.5 15.33203125  C 14.1375 15.33203125  14.7703125 15.2320498511905  15.3984375 15.0320870535714  C 16.0265625 14.8321242559524  16.528125 14.6089099702381  16.903125 14.3624441964286  C 17.278125 14.115978422619  17.6203125 13.8927641369048  17.9296875 13.6928013392857  C 18.2390625 13.4928385416667  18.440625 13.3928571428571  18.534375 13.3928571428571  C 19.10625 13.3928571428571  19.62890625 13.4858630952381  20.10234375 13.671875  C 20.57578125 13.8578869047619  20.9765625 14.106677827381  21.3046875 14.4182477678571  C 21.6328125 14.7298177083333  21.9234375 15.1064918154762  22.1765625 15.5482700892857  C 22.4296875 15.9900483630952  22.63125 16.4434523809524  22.78125 16.9084821428571  C 22.93125 17.3735119047619  23.05546875 17.8780691964286  23.15390625 18.4221540178571  C 23.25234375 18.9662388392857  23.31796875 19.4731212797619  23.35078125 19.9428013392857  Z M 7.9453125 1.04631696428572  C 8.6484375 1.74386160714286  9 2.58556547619047  9 3.57142857142857  C 9 4.55729166666667  8.6484375 5.39899553571428  7.9453125 6.09654017857143  C 7.2421875 6.79408482142857  6.39375 7.14285714285714  5.4 7.14285714285714  C 4.40625 7.14285714285714  3.5578125 6.79408482142857  2.8546875 6.09654017857143  C 2.1515625 5.39899553571428  1.8 4.55729166666667  1.8 3.57142857142857  C 1.8 2.58556547619047  2.1515625 1.74386160714286  2.8546875 1.04631696428572  C 3.5578125 0.348772321428573  4.40625 0  5.4 0  C 6.39375 0  7.2421875 0.348772321428573  7.9453125 1.04631696428572  Z M 17.31796875 5.14090401785714  C 18.37265625 6.18722098214286  18.9 7.44977678571428  18.9 8.92857142857143  C 18.9 10.4073660714286  18.37265625 11.669921875  17.31796875 12.7162388392857  C 16.26328125 13.7625558035714  14.990625 14.2857142857143  13.5 14.2857142857143  C 12.009375 14.2857142857143  10.73671875 13.7625558035714  9.68203125 12.7162388392857  C 8.62734375 11.669921875  8.1 10.4073660714286  8.1 8.92857142857143  C 8.1 7.44977678571428  8.62734375 6.18722098214286  9.68203125 5.14090401785714  C 10.73671875 4.09458705357143  12.009375 3.57142857142857  13.5 3.57142857142857  C 14.990625 3.57142857142857  16.26328125 4.09458705357143  17.31796875 5.14090401785714  Z M 25.25625 7.14285714285714  C 26.41875 7.14285714285714  27 8.78441220238095  27 12.0675223214286  C 27 12.79296875  26.7375 13.3440290178571  26.2125 13.720703125  C 25.6875 14.0973772321429  25.040625 14.2857142857143  24.271875 14.2857142857143  L 22.3875 14.2857142857143  C 21.421875 13.1417410714286  20.1796875 12.5465029761905  18.6609375 12.5  C 19.4203125 11.4118303571429  19.8 10.2213541666667  19.8 8.92857142857143  C 19.8 8.65885416666667  19.7765625 8.35193452380952  19.7296875 8.0078125  C 20.3484375 8.22172619047619  20.971875 8.32868303571428  21.6 8.32868303571428  C 22.153125 8.32868303571428  22.7109375 8.22870163690476  23.2734375 8.02873883928572  C 23.8359375 7.82877604166667  24.29296875 7.63113839285714  24.64453125 7.43582589285714  C 24.99609375 7.24051339285714  25.2 7.14285714285714  25.25625 7.14285714285714  Z M 24.1453125 1.04631696428572  C 24.8484375 1.74386160714286  25.2 2.58556547619047  25.2 3.57142857142857  C 25.2 4.55729166666667  24.8484375 5.39899553571428  24.1453125 6.09654017857143  C 23.4421875 6.79408482142857  22.59375 7.14285714285714  21.6 7.14285714285714  C 20.60625 7.14285714285714  19.7578125 6.79408482142857  19.0546875 6.09654017857143  C 18.3515625 5.39899553571428  18 4.55729166666667  18 3.57142857142857  C 18 2.58556547619047  18.3515625 1.74386160714286  19.0546875 1.04631696428572  C 19.7578125 0.348772321428573  20.60625 0  21.6 0  C 22.59375 0  23.4421875 0.348772321428573  24.1453125 1.04631696428572  Z " fill-rule="nonzero" fill="#0c0a62" stroke="none" transform="matrix(1 0 0 1 25 376 )" />
  </g>
</svg>