<?xml version="1.0" encoding="utf-8"?>
<svg version="1.1" xmlns:xlink="http://www.w3.org/1999/xlink" width="17px" height="9px" xmlns="http://www.w3.org/2000/svg">
  <g transform="matrix(1 0 0 1 -329 -384 )">
    <path d="M 17 1.99565217391304  C 17 2.14927536231884  16.9332092638544 2.28115942028985  16.7996277915633 2.39130434782609  L 8.97456575682382 8.83478260869565  C 8.84098428453267 8.94492753623188  8.68279569892473 9  8.5 9  C 8.31720430107527 9  8.15901571546733 8.94492753623188  8.02543424317618 8.83478260869565  L 0.200372208436725 2.39130434782609  C 0.066790736145575 2.28115942028985  0 2.14927536231884  0 1.99565217391304  C 0 1.84202898550725  0.066790736145575 1.71014492753623  0.200372208436725 1.6  L 1.95099255583127 0.165217391304348  C 2.08457402812242 0.0550724637681156  2.24276261373036 0  2.42555831265509 0  C 2.60835401157982 0  2.76654259718776 0.0550724637681156  2.90012406947891 0.165217391304348  L 8.5 4.78260869565217  L 14.0998759305211 0.165217391304348  C 14.2334574028122 0.0550724637681156  14.3916459884202 0  14.5744416873449 0  C 14.7572373862696 0  14.9154259718776 0.0550724637681156  15.0490074441687 0.165217391304348  L 16.7996277915633 1.6  C 16.9332092638544 1.71014492753623  17 1.84202898550725  17 1.99565217391304  Z " fill-rule="nonzero" fill="#ffe4bf" stroke="none" transform="matrix(1 0 0 1 329 384 )" />
  </g>
</svg>