<?xml version="1.0" encoding="utf-8"?>
<svg version="1.1" xmlns:xlink="http://www.w3.org/1999/xlink" width="32px" height="20px" xmlns="http://www.w3.org/2000/svg">
  <g transform="matrix(1 0 0 1 -66 -363 )">
    <path d="M 16.6666666666667 11.5755208333333  L 24.6388888888889 9.21875  L 24.8888888888889 13.3333333333333  C 24.9259259259259 13.9322916666667  24.5462962962963 14.4878472222222  23.75 15  C 22.9537037037037 15.5121527777778  21.8657407407407 15.91796875  20.4861111111111 16.2174479166667  C 19.1064814814815 16.5169270833333  17.6111111111111 16.6666666666667  16 16.6666666666667  C 14.3888888888889 16.6666666666667  12.8935185185185 16.5169270833333  11.5138888888889 16.2174479166667  C 10.1342592592593 15.91796875  9.0462962962963 15.5121527777778  8.25 15  C 7.45370370370371 14.4878472222222  7.07407407407407 13.9322916666667  7.11111111111111 13.3333333333333  L 7.36111111111111 9.21875  L 15.3333333333333 11.5755208333333  C 15.537037037037 11.6362847222222  15.7592592592593 11.6666666666667  16 11.6666666666667  C 16.2407407407407 11.6666666666667  16.462962962963 11.6362847222222  16.6666666666667 11.5755208333333  Z M 31.6944444444444 4.59635416666667  C 31.8981481481482 4.66579861111111  32 4.80034722222222  32 5  C 32 5.19965277777778  31.8981481481482 5.33420138888889  31.6944444444444 5.40364583333333  L 16.1388888888889 9.98697916666667  C 16.1018518518519 9.99565972222222  16.0555555555556 10  16 10  C 15.9444444444444 10  15.8981481481481 9.99565972222222  15.8611111111111 9.98697916666667  L 6.80555555555556 7.3046875  C 6.40740740740741 7.59982638888889  6.07870370370371 8.08376736111111  5.81944444444444 8.75651041666667  C 5.56018518518519 9.42925347222222  5.40277777777778 10.2039930555556  5.34722222222222 11.0807291666667  C 5.93055555555556 11.3932291666667  6.22222222222222 11.8663194444444  6.22222222222222 12.5  C 6.22222222222222 13.0989583333333  5.9537037037037 13.5633680555556  5.41666666666667 13.8932291666667  L 6.22222222222222 19.53125  C 6.24074074074074 19.6527777777778  6.20370370370371 19.7612847222222  6.11111111111111 19.8567708333333  C 6.02777777777778 19.9522569444444  5.91666666666667 20  5.77777777777778 20  L 3.11111111111111 20  C 2.97222222222222 20  2.86111111111111 19.9522569444444  2.77777777777778 19.8567708333333  C 2.68518518518519 19.7612847222222  2.64814814814815 19.6527777777778  2.66666666666667 19.53125  L 3.47222222222222 13.8932291666667  C 2.93518518518519 13.5633680555556  2.66666666666667 13.0989583333333  2.66666666666667 12.5  C 2.66666666666667 11.8663194444444  2.96759259259259 11.3845486111111  3.56944444444444 11.0546875  C 3.6712962962963 9.2578125  4.125 7.82552083333333  4.93055555555556 6.7578125  L 0.305555555555556 5.40364583333333  C 0.101851851851852 5.33420138888889  0 5.19965277777778  0 5  C 0 4.80034722222222  0.101851851851852 4.66579861111111  0.305555555555556 4.59635416666667  L 15.8611111111111 0.0130208333333326  C 15.8981481481481 0.00434027777777679  15.9444444444444 0  16 0  C 16.0555555555556 0  16.1018518518519 0.00434027777777679  16.1388888888889 0.0130208333333326  L 31.6944444444444 4.59635416666667  Z " fill-rule="nonzero" fill="#ff7200" stroke="none" transform="matrix(1 0 0 1 66 363 )" />
  </g>
</svg>