<?xml version="1.0" encoding="utf-8"?>
<svg version="1.1" xmlns:xlink="http://www.w3.org/1999/xlink" width="25px" height="19px" xmlns="http://www.w3.org/2000/svg">
  <g transform="matrix(1 0 0 1 -324 -637 )">
    <path d="M 6.93359375 0.0424107142857152  C 6.99869791666667 0.0141369047619058  7.06845238095238 0  7.14285714285714 0  C 7.26376488095238 0  7.36839657738095 0.0335751488095246  7.45675223214286 0.100725446428572  C 7.54510788690476 0.167875744047619  7.58928571428571 0.247395833333332  8 0.339285714285715  L 8 15.9464285714286  C 7.58928571428571 16.0877976190476  7.51023065476191 16.186755952381  7.35212053571429 16.2433035714286  L 0.655691964285714 18.9575892857143  C 0.590587797619048 18.9858630952381  0.520833333333333 19  0.446428571428571 19  C 0.325520833333333 19  0.220889136904762 18.9664248511905  0.132533482142857 18.8992745535714  C 0.0441778273809524 18.8321242559524  0 18.7526041666667  0 18.6607142857143  L 0 3.05357142857143  C 0 2.91220238095238  0.0790550595238095 2.81324404761905  0.237165178571429 2.75669642857143  L 6.93359375 0.0424107142857152  Z M 24.3443080357143 0.0424107142857152  C 24.409412202381 0.0141369047619058  24.4791666666667 0  24.5535714285714 0  C 24.6744791666667 0  24.7791108630952 0.0335751488095246  24.8674665178571 0.100725446428572  C 24.9558221726191 0.167875744047619  25 0.247395833333332  25 0.339285714285715  L 25 15.9464285714286  C 25 16.0877976190476  24.9209449404762 16.186755952381  24.7628348214286 16.2433035714286  L 18.06640625 18.9575892857143  C 18.0013020833333 18.9858630952381  17.9315476190476 19  17.8571428571429 19  C 17.7362351190476 19  17.6316034226191 18.9664248511905  17.5432477678571 18.8992745535714  C 17.4548921130952 18.8321242559524  17.4107142857143 18.7526041666667  17 18.6607142857143  L 17 3.05357142857143  C 17.4107142857143 2.91220238095238  17.4897693452381 2.81324404761905  17.6478794642857 2.75669642857143  L 24.3443080357143 0.0424107142857152  Z M 8.61467633928571 0.100725446428572  C 8.70303199404762 0.0335751488095246  8.80766369047619 0  8.92857142857143 0  C 9.00297619047619 0  9.06808035714286 0.0106026785714283  9.12388392857143 0.0318080357142848  L 16.2667410714286 2.74609375  C 16.4341517857143 2.81677827380952  16.5178571428571 2.91927083333333  16.5178571428571 3.05357142857143  L 16.5178571428571 18.6607142857143  C 16.5178571428571 18.7526041666667  16.4736793154762 18.8321242559524  16.3853236607143 18.8992745535714  C 16.2969680059524 18.9664248511905  16.1923363095238 19  16.0714285714286 19  C 15.9970238095238 19  15.9319196428571 18.9893973214286  15.8761160714286 18.9681919642857  L 8.73325892857143 16.25390625  C 8.56584821428571 16.1832217261905  8.48214285714286 16.0807291666667  8.48214285714286 15.9464285714286  L 8.48214285714286 0.339285714285715  C 8.48214285714286 0.247395833333332  8.52632068452381 0.167875744047619  8.61467633928571 0.100725446428572  Z " fill-rule="nonzero" fill="#ff7100" stroke="none" transform="matrix(1 0 0 1 324 637 )" />
  </g>
</svg>