<?xml version="1.0" encoding="utf-8"?>
<svg version="1.1" xmlns:xlink="http://www.w3.org/1999/xlink" width="30px" height="20px" xmlns="http://www.w3.org/2000/svg">
  <g transform="matrix(1 0 0 1 -22 -165 )">
    <path d="M 15.625 11.5755208333333  L 23.0989583333333 9.21875  L 23.3333333333333 13.3333333333333  C 23.3680555555556 13.9322916666667  23.0121527777778 14.4878472222222  22.265625 15  C 21.5190972222222 15.5121527777778  20.4991319444444 15.91796875  19.2057291666667 16.2174479166667  C 17.9123263888889 16.5169270833333  16.5104166666667 16.6666666666667  15 16.6666666666667  C 13.4895833333333 16.6666666666667  12.0876736111111 16.5169270833333  10.7942708333333 16.2174479166667  C 9.50086805555556 15.91796875  8.48090277777778 15.5121527777778  7.734375 15  C 6.98784722222222 14.4878472222222  6.63194444444444 13.9322916666667  6.66666666666667 13.3333333333333  L 6.90104166666667 9.21875  L 14.375 11.5755208333333  C 14.5659722222222 11.6362847222222  14.7743055555556 11.6666666666667  15 11.6666666666667  C 15.2256944444444 11.6666666666667  15.4340277777778 11.6362847222222  15.625 11.5755208333333  Z M 29.7135416666667 4.59635416666667  C 29.9045138888889 4.66579861111111  30 4.80034722222222  30 5  C 30 5.19965277777778  29.9045138888889 5.33420138888889  29.7135416666667 5.40364583333333  L 15.1302083333333 9.98697916666667  C 15.0954861111111 9.99565972222222  15.0520833333333 10  15 10  C 14.9479166666667 10  14.9045138888889 9.99565972222222  14.8697916666667 9.98697916666667  L 6.38020833333333 7.3046875  C 6.00694444444445 7.59982638888889  5.69878472222222 8.08376736111111  5.45572916666667 8.75651041666667  C 5.21267361111111 9.42925347222222  5.06510416666667 10.2039930555556  5.01302083333333 11.0807291666667  C 5.55989583333333 11.3932291666667  5.83333333333333 11.8663194444444  5.83333333333333 12.5  C 5.83333333333333 13.0989583333333  5.58159722222222 13.5633680555556  5.078125 13.8932291666667  L 5.83333333333333 19.53125  C 5.85069444444444 19.6527777777778  5.81597222222222 19.7612847222222  5.72916666666667 19.8567708333333  C 5.65104166666667 19.9522569444444  5.546875 20  5.41666666666667 20  L 2.91666666666667 20  C 2.78645833333333 20  2.68229166666667 19.9522569444444  2.60416666666667 19.8567708333333  C 2.51736111111111 19.7612847222222  2.48263888888889 19.6527777777778  2.5 19.53125  L 3.25520833333333 13.8932291666667  C 2.75173611111111 13.5633680555556  2.5 13.0989583333333  2.5 12.5  C 2.5 11.8663194444444  2.78211805555556 11.3845486111111  3.34635416666667 11.0546875  C 3.44184027777778 9.2578125  3.8671875 7.82552083333333  4.62239583333333 6.7578125  L 0.286458333333333 5.40364583333333  C 0.0954861111111111 5.33420138888889  0 5.19965277777778  0 5  C 0 4.80034722222222  0.0954861111111111 4.66579861111111  0.286458333333333 4.59635416666667  L 14.8697916666667 0.0130208333333326  C 14.9045138888889 0.00434027777777679  14.9479166666667 0  15 0  C 15.0520833333333 0  15.0954861111111 0.00434027777777679  15.1302083333333 0.0130208333333326  L 29.7135416666667 4.59635416666667  Z " fill-rule="nonzero" fill="#0c0a62" stroke="none" transform="matrix(1 0 0 1 22 165 )" />
  </g>
</svg>