<?xml version="1.0" encoding="utf-8"?>
<svg version="1.1" xmlns:xlink="http://www.w3.org/1999/xlink" width="32px" height="32px" xmlns="http://www.w3.org/2000/svg">
  <g transform="matrix(1 0 0 1 -40 -420 )">
    <path d="M 31.9318181818182 24.7954545454545  C 31.9772727272727 24.9015151515151  32 25.0606060606061  32 25.2727272727273  C 32 25.6818181818182  31.9242424242424 26.2159090909091  31.7727272727273 26.875  C 31.6212121212121 27.5340909090909  31.4621212121212 28.0530303030303  31.2954545454545 28.4318181818182  C 30.9772727272727 29.1893939393939  30.0530303030303 29.9924242424242  28.5227272727273 30.8409090909091  C 27.0984848484849 31.6136363636364  25.6893939393939 32  24.2954545454545 32  C 23.8863636363636 32  23.4848484848485 31.9734848484848  23.0909090909091 31.9204545454545  C 22.6969696969697 31.8674242424242  22.2613636363636 31.7727272727273  21.7840909090909 31.6363636363636  C 21.3068181818182 31.5  20.9507575757576 31.3901515151515  20.7159090909091 31.3068181818182  C 20.4810606060606 31.2234848484848  20.0606060606061 31.0681818181818  19.4545454545455 30.8409090909091  C 18.8484848484849 30.6136363636364  18.4772727272727 30.4772727272727  18.3409090909091 30.4318181818182  C 16.8560606060606 29.9015151515152  15.530303030303 29.2727272727273  14.3636363636364 28.5454545454545  C 12.4393939393939 27.3484848484848  10.4393939393939 25.7121212121212  8.36363636363636 23.6363636363636  C 6.28787878787879 21.5606060606061  4.65151515151515 19.5606060606061  3.45454545454545 17.6363636363636  C 2.72727272727273 16.469696969697  2.09848484848485 15.1439393939394  1.56818181818182 13.6590909090909  C 1.52272727272727 13.5227272727273  1.38636363636364 13.1515151515151  1.15909090909091 12.5454545454545  C 0.931818181818182 11.9393939393939  0.776515151515152 11.5189393939394  0.693181818181818 11.2840909090909  C 0.609848484848485 11.0492424242424  0.5 10.6931818181818  0.363636363636364 10.2159090909091  C 0.227272727272727 9.73863636363636  0.132575757575758 9.3030303030303  0.0795454545454545 8.90909090909091  C 0.0265151515151515 8.51515151515151  0 8.11363636363636  0 7.70454545454545  C 0 6.31060606060606  0.386363636363636 4.90151515151515  1.15909090909091 3.47727272727273  C 2.00757575757576 1.94696969696969  2.81060606060606 1.02272727272727  3.56818181818182 0.704545454545453  C 3.9469696969697 0.537878787878785  4.46590909090909 0.378787878787875  5.125 0.227272727272727  C 5.78409090909091 0.0757575757575744  6.31818181818182 0  6.72727272727273 0  C 6.93939393939394 0  7.09848484848485 0.0227272727272734  7.20454545454545 0.0681818181818166  C 7.47727272727273 0.15909090909091  7.87878787878788 0.734848484848484  8.40909090909091 1.79545454545455  C 8.57575757575758 2.08333333333333  8.8030303030303 2.49242424242424  9.09090909090909 3.02272727272727  C 9.37878787878788 3.5530303030303  9.64393939393939 4.03409090909091  9.88636363636364 4.46590909090909  C 10.1287878787879 4.89772727272727  10.3636363636364 5.3030303030303  10.5909090909091 5.68181818181818  C 10.6363636363636 5.74242424242424  10.7689393939394 5.93181818181818  10.9886363636364 6.25  C 11.2083333333333 6.56818181818182  11.3712121212121 6.83712121212121  11.4772727272727 7.05681818181818  C 11.5833333333333 7.27651515151515  11.6363636363636 7.49242424242424  11.6363636363636 7.70454545454545  C 11.6363636363636 8.00757575757575  11.4204545454545 8.38636363636364  10.9886363636364 8.84090909090909  C 10.5568181818182 9.29545454545455  10.0871212121212 9.71212121212121  9.57954545454546 10.0909090909091  C 9.0719696969697 10.469696969697  8.60227272727273 10.8712121212121  8.17045454545455 11.2954545454545  C 7.73863636363636 11.719696969697  7.52272727272727 12.0681818181818  7.52272727272727 12.3409090909091  C 7.52272727272727 12.4772727272727  7.56060606060606 12.6477272727273  7.63636363636364 12.8522727272727  C 7.71212121212121 13.0568181818182  7.77651515151515 13.2121212121212  7.82954545454545 13.3181818181818  C 7.88257575757576 13.4242424242424  7.98863636363636 13.6060606060606  8.14772727272727 13.8636363636364  C 8.30681818181818 14.1212121212121  8.39393939393939 14.2651515151515  8.40909090909091 14.2954545454545  C 9.56060606060606 16.3712121212121  10.8787878787879 18.1515151515151  12.3636363636364 19.6363636363636  C 13.8484848484848 21.1212121212121  15.6287878787879 22.4393939393939  17.7045454545455 23.5909090909091  C 17.7348484848485 23.6060606060606  17.8787878787879 23.6931818181818  18.1363636363636 23.8522727272727  C 18.3939393939394 24.0113636363636  18.5757575757576 24.1174242424242  18.6818181818182 24.1704545454545  C 18.7878787878788 24.2234848484848  18.9431818181818 24.2878787878788  19.1477272727273 24.3636363636364  C 19.3522727272727 24.4393939393939  19.5227272727273 24.4772727272727  19.6590909090909 24.4772727272727  C 19.9318181818182 24.4772727272727  20.280303030303 24.2613636363636  20.7045454545455 23.8295454545455  C 21.1287878787879 23.3977272727273  21.530303030303 22.9280303030303  21.9090909090909 22.4204545454545  C 22.2878787878788 21.9128787878788  22.7045454545455 21.4431818181818  23.1590909090909 21.0113636363636  C 23.6136363636364 20.5795454545455  23.9924242424242 20.3636363636364  24.2954545454545 20.3636363636364  C 24.5075757575758 20.3636363636364  24.7234848484849 20.4166666666667  24.9431818181818 20.5227272727273  C 25.1628787878788 20.6287878787879  25.4318181818182 20.7916666666667  25.75 21.0113636363636  C 26.0681818181818 21.2310606060606  26.2575757575758 21.3636363636364  26.3181818181818 21.4090909090909  C 26.6969696969697 21.6363636363636  27.1022727272727 21.8712121212121  27.5340909090909 22.1136363636364  C 27.9659090909091 22.3560606060606  28.4469696969697 22.6212121212121  28.9772727272727 22.9090909090909  C 29.5075757575758 23.1969696969697  29.9166666666667 23.4242424242424  30.2045454545455 23.5909090909091  C 31.2651515151515 24.1212121212121  31.8409090909091 24.5227272727273  31.9318181818182 24.7954545454545  Z " fill-rule="nonzero" fill="#f26432" stroke="none" transform="matrix(1 0 0 1 40 420 )" />
  </g>
</svg>