<?xml version="1.0" encoding="utf-8"?>
<svg version="1.1" xmlns:xlink="http://www.w3.org/1999/xlink" width="32px" height="31px" xmlns="http://www.w3.org/2000/svg">
  <g transform="matrix(1 0 0 1 -110 -157 )">
    <path d="M 16 29.6160714285714  C 16.2051282051282 29.6160714285714  16.3076923076923 29.5238095238095  16.3076923076923 29.3392857142857  C 16.3076923076923 29.1547619047619  16.2051282051282 29.0625  16 29.0625  C 15.2435897435897 29.0625  14.5929487179487 28.8174293154762  14.0480769230769 28.3272879464286  C 13.5032051282051 27.837146577381  13.2307692307692 27.2518601190476  13.2307692307692 26.5714285714286  C 13.2307692307692 26.3869047619048  13.1282051282051 26.2946428571429  12.9230769230769 26.2946428571429  C 12.7179487179487 26.2946428571429  12.6153846153846 26.3869047619048  12.6153846153846 26.5714285714286  C 12.6153846153846 27.413318452381  12.9455128205128 28.1312313988095  13.6057692307692 28.7251674107143  C 14.2660256410256 29.319103422619  15.0641025641026 29.6160714285714  16 29.6160714285714  Z M 30.25 22.8348214285714  C 30.775641025641 23.3653273809524  31.3589743589744 23.8727678571429  32 24.3571428571429  C 32 24.9568452380952  31.7564102564103 25.475818452381  31.2692307692308 25.9140625  C 30.7820512820513 26.352306547619  30.2051282051282 26.5714285714286  29.5384615384615 26.5714285714286  L 20.9230769230769 26.5714285714286  C 20.9230769230769 27.7938988095238  20.4423076923077 28.8376116071429  19.4807692307692 29.7025669642857  C 18.5192307692308 30.5675223214286  17.3589743589744 31  16 31  C 14.6410256410256 31  13.4807692307692 30.5675223214286  12.5192307692308 29.7025669642857  C 11.5576923076923 28.8376116071429  11.0769230769231 27.7938988095238  11.0769230769231 26.5714285714286  L 2.46153846153846 26.5714285714286  C 1.7948717948718 26.5714285714286  1.21794871794872 26.352306547619  0.730769230769231 25.9140625  C 0.243589743589744 25.475818452381  0 24.9568452380952  0 24.3571428571429  C 0.641025641025641 23.8727678571429  1.22435897435897 23.3653273809524  1.75 22.8348214285714  C 2.27564102564103 22.3043154761905  2.82051282051282 21.615234375  3.38461538461538 20.767578125  C 3.94871794871795 19.919921875  4.42628205128205 19.0059523809524  4.81730769230769 18.0256696428571  C 5.20833333333333 17.0453869047619  5.52884615384615 15.8575148809524  5.77884615384615 14.4620535714286  C 6.02884615384615 13.0665922619048  6.15384615384615 11.5673363095238  6.15384615384615 9.96428571428571  C 6.15384615384615 8.21130952380952  6.90384615384615 6.58231026785714  8.40384615384615 5.07728794642857  C 9.90384615384615 3.572265625  11.8717948717949 2.65829613095238  14.3076923076923 2.33537946428571  C 14.2051282051282 2.11625744047619  14.1538461538462 1.89136904761905  14.1538461538462 1.66071428571429  C 14.1538461538462 1.19940476190476  14.3333333333333 0.807291666666666  14.6923076923077 0.484375  C 15.0512820512821 0.161458333333334  15.4871794871795 0  16 0  C 16.5128205128205 0  16.948717948718 0.161458333333334  17.3076923076923 0.484375  C 17.6666666666667 0.807291666666666  17.8461538461538 1.19940476190476  17.8461538461538 1.66071428571429  C 17.8461538461538 1.89136904761905  17.7948717948718 2.11625744047619  17.6923076923077 2.33537946428571  C 20.1282051282051 2.65829613095238  22.0961538461538 3.572265625  23.5961538461538 5.07728794642857  C 25.0961538461538 6.58231026785714  25.8461538461538 8.21130952380952  25.8461538461538 9.96428571428571  C 25.8461538461538 11.5673363095238  25.9711538461538 13.0665922619048  26.2211538461538 14.4620535714286  C 26.4711538461538 15.8575148809524  26.7916666666667 17.0453869047619  27.1826923076923 18.0256696428571  C 27.573717948718 19.0059523809524  28.0512820512821 19.919921875  28.6153846153846 20.767578125  C 29.1794871794872 21.615234375  29.724358974359 22.3043154761905  30.25 22.8348214285714  Z " fill-rule="nonzero" fill="#ff7200" stroke="none" transform="matrix(1 0 0 1 110 157 )" />
  </g>
</svg>