<?xml version="1.0" encoding="utf-8"?>
<svg version="1.1" xmlns:xlink="http://www.w3.org/1999/xlink" width="12px" height="12px" xmlns="http://www.w3.org/2000/svg">
  <g transform="matrix(1 0 0 1 -337 -190 )">
    <path d="M 10.5085227272727 1.49147727272725  C 10.2414772727273 1.22443181818187  9.92045454545456 1.09090909090912  9.54545454545456 1.09090909090912  L 2.45454545454544 1.09090909090912  C 2.07954545454544 1.09090909090912  1.75852272727275 1.22443181818187  1.49147727272725 1.49147727272725  C 1.22443181818181 1.75852272727275  1.09090909090907 2.0795454545455  1.09090909090907 2.4545454545455  L 1.09090909090907 9.5454545454545  C 1.09090909090907 9.9204545454545  1.22443181818181 10.2414772727273  1.49147727272725 10.5085227272727  C 1.75852272727275 10.7755681818181  2.07954545454544 10.9090909090909  2.45454545454544 10.9090909090909  L 5.42424242424244 10.9090909090909  L 9.54545454545456 10.9090909090909  C 9.92045454545456 10.9090909090909  10.2414772727273 10.7755681818181  10.5085227272727 10.5085227272727  C 10.7755681818182 10.2414772727273  10.9090909090909 9.9204545454545  10.9090909090909 9.5454545454545  L 10.9090909090909 2.4545454545455  C 10.9090909090909 2.0795454545455  10.7755681818182 1.75852272727275  10.5085227272727 1.49147727272725  Z M 11.2798295454546 0.720170454545496  C 11.7599431818182 1.20028409090912  12 1.77840909090912  12 2.4545454545455  L 12 9.5454545454545  C 12 10.2215909090909  11.7599431818182 10.7997159090909  11.2798295454546 11.2798295454545  C 10.7997159090909 11.7599431818181  10.2215909090909 12  9.54545454545456 12  L 2.45454545454544 12  C 1.77840909090907 12  1.20028409090907 11.7599431818181  0.720170454545439 11.2798295454545  C 0.240056818181813 10.7997159090909  0 10.2215909090909  0 9.5454545454545  L 0 2.4545454545455  C 0 1.77840909090912  0.240056818181813 1.20028409090912  0.720170454545439 0.720170454545496  C 1.20028409090907 0.24005681818187  1.77840909090907 0  2.45454545454544 0  L 9.54545454545456 0  C 10.2215909090909 0  10.7997159090909 0.24005681818187  11.2798295454546 0.720170454545496  Z " fill-rule="nonzero" fill="#ff7200" stroke="none" transform="matrix(1 0 0 1 337 190 )" />
  </g>
</svg>