<?xml version="1.0" encoding="utf-8"?>
<svg version="1.1" xmlns:xlink="http://www.w3.org/1999/xlink" width="23px" height="30px" xmlns="http://www.w3.org/2000/svg">
  <g transform="matrix(1 0 0 1 -20 -370 )">
    <path d="M 1.04545454545455 0  L 21.9545454545455 0  C 22.2376893939394 0  22.4827178030303 0.106026785714288  22.6896306818182 0.318080357142858  C 22.8965435606061 0.530133928571425  23 0.781249999999999  23 1.07142857142857  L 23 28.9285714285714  C 23 29.21875  22.8965435606061 29.4698660714286  22.6896306818182 29.6819196428571  C 22.4827178030303 29.8939732142857  22.2376893939394 30  21.9545454545455 30  L 1.04545454545455 30  C 0.762310606060606 30  0.517282196969697 29.8939732142857  0.310369318181818 29.6819196428571  C 0.103456439393939 29.4698660714286  0 29.21875  0 28.9285714285714  L 0 1.07142857142857  C 0 0.781249999999999  0.103456439393939 0.530133928571425  0.310369318181818 0.318080357142858  C 0.517282196969697 0.106026785714288  0.762310606060606 0  1.04545454545455 0  Z M 8.51065340909091 4.43638392857143  C 8.41264204545455 4.53683035714286  8.36363636363636 4.66517857142857  8.36363636363636 4.82142857142857  L 8.36363636363636 5.89285714285714  C 8.36363636363636 6.04910714285714  8.41264204545455 6.17745535714286  8.51065340909091 6.27790178571429  C 8.60866477272727 6.37834821428571  8.73390151515152 6.42857142857143  8.88636363636364 6.42857142857143  L 9.93181818181818 6.42857142857143  C 10.0842803030303 6.42857142857143  10.2095170454545 6.37834821428571  10.3075284090909 6.27790178571429  C 10.4055397727273 6.17745535714286  10.4545454545455 6.04910714285714  10.4545454545455 5.89285714285714  L 10.4545454545455 4.82142857142857  C 10.4545454545455 4.66517857142857  10.4055397727273 4.53683035714286  10.3075284090909 4.43638392857143  C 10.2095170454545 4.3359375  10.0842803030303 4.28571428571429  9.93181818181818 4.28571428571429  L 8.88636363636364 4.28571428571429  C 8.73390151515152 4.28571428571429  8.60866477272727 4.3359375  8.51065340909091 4.43638392857143  Z M 8.51065340909091 8.72209821428571  C 8.41264204545455 8.82254464285714  8.36363636363636 8.95089285714285  8.36363636363636 9.10714285714286  L 8.36363636363636 10.1785714285714  C 8.36363636363636 10.3348214285714  8.41264204545455 10.4631696428571  8.51065340909091 10.5636160714286  C 8.60866477272727 10.6640625  8.73390151515152 10.7142857142857  8.88636363636364 10.7142857142857  L 9.93181818181818 10.7142857142857  C 10.0842803030303 10.7142857142857  10.2095170454545 10.6640625  10.3075284090909 10.5636160714286  C 10.4055397727273 10.4631696428571  10.4545454545455 10.3348214285714  10.4545454545455 10.1785714285714  L 10.4545454545455 9.10714285714286  C 10.4545454545455 8.95089285714285  10.4055397727273 8.82254464285714  10.3075284090909 8.72209821428571  C 10.2095170454545 8.62165178571429  10.0842803030303 8.57142857142857  9.93181818181818 8.57142857142857  L 8.88636363636364 8.57142857142857  C 8.73390151515152 8.57142857142857  8.60866477272727 8.62165178571429  8.51065340909091 8.72209821428571  Z M 8.51065340909091 13.0078125  C 8.41264204545455 13.1082589285714  8.36363636363636 13.2366071428571  8.36363636363636 13.3928571428571  L 8.36363636363636 14.4642857142857  C 8.36363636363636 14.6205357142857  8.41264204545455 14.7488839285714  8.51065340909091 14.8493303571429  C 8.60866477272727 14.9497767857143  8.73390151515152 15  8.88636363636364 15  L 9.93181818181818 15  C 10.0842803030303 15  10.2095170454545 14.9497767857143  10.3075284090909 14.8493303571429  C 10.4055397727273 14.7488839285714  10.4545454545455 14.6205357142857  10.4545454545455 14.4642857142857  L 10.4545454545455 13.3928571428571  C 10.4545454545455 13.2366071428571  10.4055397727273 13.1082589285714  10.3075284090909 13.0078125  C 10.2095170454545 12.9073660714286  10.0842803030303 12.8571428571429  9.93181818181818 12.8571428571429  L 8.88636363636364 12.8571428571429  C 8.73390151515152 12.8571428571429  8.60866477272727 12.9073660714286  8.51065340909091 13.0078125  Z M 8.51065340909091 17.2935267857143  C 8.41264204545455 17.3939732142857  8.36363636363636 17.5223214285714  8.36363636363636 17.6785714285714  L 8.36363636363636 18.75  C 8.36363636363636 18.90625  8.41264204545455 19.0345982142857  8.51065340909091 19.1350446428571  C 8.60866477272727 19.2354910714286  8.73390151515152 19.2857142857143  8.88636363636364 19.2857142857143  L 9.93181818181818 19.2857142857143  C 10.0842803030303 19.2857142857143  10.2095170454545 19.2354910714286  10.3075284090909 19.1350446428571  C 10.4055397727273 19.0345982142857  10.4545454545455 18.90625  10.4545454545455 18.75  L 10.4545454545455 17.6785714285714  C 10.4545454545455 17.5223214285714  10.4055397727273 17.3939732142857  10.3075284090909 17.2935267857143  C 10.2095170454545 17.1930803571429  10.0842803030303 17.1428571428571  9.93181818181818 17.1428571428571  L 8.88636363636364 17.1428571428571  C 8.73390151515152 17.1428571428571  8.60866477272727 17.1930803571429  8.51065340909091 17.2935267857143  Z M 6.12571022727273 23.4207589285714  C 6.22372159090909 23.3203125  6.27272727272727 23.1919642857143  6.27272727272727 23.0357142857143  L 6.27272727272727 21.9642857142857  C 6.27272727272727 21.8080357142857  6.22372159090909 21.6796875  6.12571022727273 21.5792410714286  C 6.02769886363636 21.4787946428571  5.90246212121212 21.4285714285714  5.75 21.4285714285714  L 4.70454545454546 21.4285714285714  C 4.55208333333333 21.4285714285714  4.42684659090909 21.4787946428571  4.32883522727273 21.5792410714286  C 4.23082386363636 21.6796875  4.18181818181818 21.8080357142857  4.18181818181818 21.9642857142857  L 4.18181818181818 23.0357142857143  C 4.18181818181818 23.1919642857143  4.23082386363636 23.3203125  4.32883522727273 23.4207589285714  C 4.42684659090909 23.5212053571429  4.55208333333333 23.5714285714286  4.70454545454546 23.5714285714286  L 5.75 23.5714285714286  C 5.90246212121212 23.5714285714286  6.02769886363636 23.5212053571429  6.12571022727273 23.4207589285714  Z M 6.12571022727273 19.1350446428571  C 6.22372159090909 19.0345982142857  6.27272727272727 18.90625  6.27272727272727 18.75  L 6.27272727272727 17.6785714285714  C 6.27272727272727 17.5223214285714  6.22372159090909 17.3939732142857  6.12571022727273 17.2935267857143  C 6.02769886363636 17.1930803571429  5.90246212121212 17.1428571428571  5.75 17.1428571428571  L 4.70454545454546 17.1428571428571  C 4.55208333333333 17.1428571428571  4.42684659090909 17.1930803571429  4.32883522727273 17.2935267857143  C 4.23082386363636 17.3939732142857  4.18181818181818 17.5223214285714  4.18181818181818 17.6785714285714  L 4.18181818181818 18.75  C 4.18181818181818 18.90625  4.23082386363636 19.0345982142857  4.32883522727273 19.1350446428571  C 4.42684659090909 19.2354910714286  4.55208333333333 19.2857142857143  4.70454545454546 19.2857142857143  L 5.75 19.2857142857143  C 5.90246212121212 19.2857142857143  6.02769886363636 19.2354910714286  6.12571022727273 19.1350446428571  Z M 6.12571022727273 14.8493303571429  C 6.22372159090909 14.7488839285714  6.27272727272727 14.6205357142857  6.27272727272727 14.4642857142857  L 6.27272727272727 13.3928571428571  C 6.27272727272727 13.2366071428571  6.22372159090909 13.1082589285714  6.12571022727273 13.0078125  C 6.02769886363636 12.9073660714286  5.90246212121212 12.8571428571429  5.75 12.8571428571429  L 4.70454545454546 12.8571428571429  C 4.55208333333333 12.8571428571429  4.42684659090909 12.9073660714286  4.32883522727273 13.0078125  C 4.23082386363636 13.1082589285714  4.18181818181818 13.2366071428571  4.18181818181818 13.3928571428571  L 4.18181818181818 14.4642857142857  C 4.18181818181818 14.6205357142857  4.23082386363636 14.7488839285714  4.32883522727273 14.8493303571429  C 4.42684659090909 14.9497767857143  4.55208333333333 15  4.70454545454546 15  L 5.75 15  C 5.90246212121212 15  6.02769886363636 14.9497767857143  6.12571022727273 14.8493303571429  Z M 6.12571022727273 10.5636160714286  C 6.22372159090909 10.4631696428571  6.27272727272727 10.3348214285714  6.27272727272727 10.1785714285714  L 6.27272727272727 9.10714285714286  C 6.27272727272727 8.95089285714285  6.22372159090909 8.82254464285714  6.12571022727273 8.72209821428571  C 6.02769886363636 8.62165178571429  5.90246212121212 8.57142857142857  5.75 8.57142857142857  L 4.70454545454546 8.57142857142857  C 4.55208333333333 8.57142857142857  4.42684659090909 8.62165178571429  4.32883522727273 8.72209821428571  C 4.23082386363636 8.82254464285714  4.18181818181818 8.95089285714285  4.18181818181818 9.10714285714286  L 4.18181818181818 10.1785714285714  C 4.18181818181818 10.3348214285714  4.23082386363636 10.4631696428571  4.32883522727273 10.5636160714286  C 4.42684659090909 10.6640625  4.55208333333333 10.7142857142857  4.70454545454546 10.7142857142857  L 5.75 10.7142857142857  C 5.90246212121212 10.7142857142857  6.02769886363636 10.6640625  6.12571022727273 10.5636160714286  Z M 6.12571022727273 6.27790178571429  C 6.22372159090909 6.17745535714286  6.27272727272727 6.04910714285714  6.27272727272727 5.89285714285714  L 6.27272727272727 4.82142857142857  C 6.27272727272727 4.66517857142857  6.22372159090909 4.53683035714286  6.12571022727273 4.43638392857143  C 6.02769886363636 4.3359375  5.90246212121212 4.28571428571429  5.75 4.28571428571429  L 4.70454545454546 4.28571428571429  C 4.55208333333333 4.28571428571429  4.42684659090909 4.3359375  4.32883522727273 4.43638392857143  C 4.23082386363636 4.53683035714286  4.18181818181818 4.66517857142857  4.18181818181818 4.82142857142857  L 4.18181818181818 5.89285714285714  C 4.18181818181818 6.04910714285714  4.23082386363636 6.17745535714286  4.32883522727273 6.27790178571429  C 4.42684659090909 6.37834821428571  4.55208333333333 6.42857142857143  4.70454545454546 6.42857142857143  L 5.75 6.42857142857143  C 5.90246212121212 6.42857142857143  6.02769886363636 6.37834821428571  6.12571022727273 6.27790178571429  Z M 14.4893465909091 27.7064732142857  C 14.5873579545455 27.6060267857143  14.6363636363636 27.4776785714286  14.6363636363636 27.3214285714286  L 14.6363636363636 24.1071428571429  C 14.6363636363636 23.9508928571429  14.5873579545455 23.8225446428571  14.4893465909091 23.7220982142857  C 14.3913352272727 23.6216517857143  14.2660984848485 23.5714285714286  14.1136363636364 23.5714285714286  L 8.88636363636364 23.5714285714286  C 8.73390151515152 23.5714285714286  8.60866477272727 23.6216517857143  8.51065340909091 23.7220982142857  C 8.41264204545455 23.8225446428571  8.36363636363636 23.9508928571429  8.36363636363636 24.1071428571429  L 8.36363636363636 27.3214285714286  C 8.36363636363636 27.4776785714286  8.41264204545455 27.6060267857143  8.51065340909091 27.7064732142857  C 8.60866477272727 27.8069196428571  8.73390151515152 27.8571428571429  8.88636363636364 27.8571428571429  L 14.1136363636364 27.8571428571429  C 14.2660984848485 27.8571428571429  14.3913352272727 27.8069196428571  14.4893465909091 27.7064732142857  Z M 14.4893465909091 19.1350446428571  C 14.5873579545455 19.0345982142857  14.6363636363636 18.90625  14.6363636363636 18.75  L 14.6363636363636 17.6785714285714  C 14.6363636363636 17.5223214285714  14.5873579545455 17.3939732142857  14.4893465909091 17.2935267857143  C 14.3913352272727 17.1930803571429  14.2660984848485 17.1428571428571  14.1136363636364 17.1428571428571  L 13.0681818181818 17.1428571428571  C 12.9157196969697 17.1428571428571  12.7904829545455 17.1930803571429  12.6924715909091 17.2935267857143  C 12.5944602272727 17.3939732142857  12.5454545454545 17.5223214285714  12.5454545454545 17.6785714285714  L 12.5454545454545 18.75  C 12.5454545454545 18.90625  12.5944602272727 19.0345982142857  12.6924715909091 19.1350446428571  C 12.7904829545455 19.2354910714286  12.9157196969697 19.2857142857143  13.0681818181818 19.2857142857143  L 14.1136363636364 19.2857142857143  C 14.2660984848485 19.2857142857143  14.3913352272727 19.2354910714286  14.4893465909091 19.1350446428571  Z M 14.4893465909091 14.8493303571429  C 14.5873579545455 14.7488839285714  14.6363636363636 14.6205357142857  14.6363636363636 14.4642857142857  L 14.6363636363636 13.3928571428571  C 14.6363636363636 13.2366071428571  14.5873579545455 13.1082589285714  14.4893465909091 13.0078125  C 14.3913352272727 12.9073660714286  14.2660984848485 12.8571428571429  14.1136363636364 12.8571428571429  L 13.0681818181818 12.8571428571429  C 12.9157196969697 12.8571428571429  12.7904829545455 12.9073660714286  12.6924715909091 13.0078125  C 12.5944602272727 13.1082589285714  12.5454545454545 13.2366071428571  12.5454545454545 13.3928571428571  L 12.5454545454545 14.4642857142857  C 12.5454545454545 14.6205357142857  12.5944602272727 14.7488839285714  12.6924715909091 14.8493303571429  C 12.7904829545455 14.9497767857143  12.9157196969697 15  13.0681818181818 15  L 14.1136363636364 15  C 14.2660984848485 15  14.3913352272727 14.9497767857143  14.4893465909091 14.8493303571429  Z M 14.4893465909091 10.5636160714286  C 14.5873579545455 10.4631696428571  14.6363636363636 10.3348214285714  14.6363636363636 10.1785714285714  L 14.6363636363636 9.10714285714286  C 14.6363636363636 8.95089285714285  14.5873579545455 8.82254464285714  14.4893465909091 8.72209821428571  C 14.3913352272727 8.62165178571429  14.2660984848485 8.57142857142857  14.1136363636364 8.57142857142857  L 13.0681818181818 8.57142857142857  C 12.9157196969697 8.57142857142857  12.7904829545455 8.62165178571429  12.6924715909091 8.72209821428571  C 12.5944602272727 8.82254464285714  12.5454545454545 8.95089285714285  12.5454545454545 9.10714285714286  L 12.5454545454545 10.1785714285714  C 12.5454545454545 10.3348214285714  12.5944602272727 10.4631696428571  12.6924715909091 10.5636160714286  C 12.7904829545455 10.6640625  12.9157196969697 10.7142857142857  13.0681818181818 10.7142857142857  L 14.1136363636364 10.7142857142857  C 14.2660984848485 10.7142857142857  14.3913352272727 10.6640625  14.4893465909091 10.5636160714286  Z M 14.4893465909091 6.27790178571429  C 14.5873579545455 6.17745535714286  14.6363636363636 6.04910714285714  14.6363636363636 5.89285714285714  L 14.6363636363636 4.82142857142857  C 14.6363636363636 4.66517857142857  14.5873579545455 4.53683035714286  14.4893465909091 4.43638392857143  C 14.3913352272727 4.3359375  14.2660984848485 4.28571428571429  14.1136363636364 4.28571428571429  L 13.0681818181818 4.28571428571429  C 12.9157196969697 4.28571428571429  12.7904829545455 4.3359375  12.6924715909091 4.43638392857143  C 12.5944602272727 4.53683035714286  12.5454545454545 4.66517857142857  12.5454545454545 4.82142857142857  L 12.5454545454545 5.89285714285714  C 12.5454545454545 6.04910714285714  12.5944602272727 6.17745535714286  12.6924715909091 6.27790178571429  C 12.7904829545455 6.37834821428571  12.9157196969697 6.42857142857143  13.0681818181818 6.42857142857143  L 14.1136363636364 6.42857142857143  C 14.2660984848485 6.42857142857143  14.3913352272727 6.37834821428571  14.4893465909091 6.27790178571429  Z M 18.6711647727273 23.4207589285714  C 18.7691761363636 23.3203125  18.8181818181818 23.1919642857143  18.8181818181818 23.0357142857143  L 18.8181818181818 21.9642857142857  C 18.8181818181818 21.8080357142857  18.7691761363636 21.6796875  18.6711647727273 21.5792410714286  C 18.5731534090909 21.4787946428571  18.4479166666667 21.4285714285714  18.2954545454545 21.4285714285714  L 17.25 21.4285714285714  C 17.0975378787879 21.4285714285714  16.9723011363636 21.4787946428571  16.8742897727273 21.5792410714286  C 16.7762784090909 21.6796875  16.7272727272727 21.8080357142857  16.7272727272727 21.9642857142857  L 16.7272727272727 23.0357142857143  C 16.7272727272727 23.1919642857143  16.7762784090909 23.3203125  16.8742897727273 23.4207589285714  C 16.9723011363636 23.5212053571429  17.0975378787879 23.5714285714286  17.25 23.5714285714286  L 18.2954545454545 23.5714285714286  C 18.4479166666667 23.5714285714286  18.5731534090909 23.5212053571429  18.6711647727273 23.4207589285714  Z M 18.6711647727273 19.1350446428571  C 18.7691761363636 19.0345982142857  18.8181818181818 18.90625  18.8181818181818 18.75  L 18.8181818181818 17.6785714285714  C 18.8181818181818 17.5223214285714  18.7691761363636 17.3939732142857  18.6711647727273 17.2935267857143  C 18.5731534090909 17.1930803571429  18.4479166666667 17.1428571428571  18.2954545454545 17.1428571428571  L 17.25 17.1428571428571  C 17.0975378787879 17.1428571428571  16.9723011363636 17.1930803571429  16.8742897727273 17.2935267857143  C 16.7762784090909 17.3939732142857  16.7272727272727 17.5223214285714  16.7272727272727 17.6785714285714  L 16.7272727272727 18.75  C 16.7272727272727 18.90625  16.7762784090909 19.0345982142857  16.8742897727273 19.1350446428571  C 16.9723011363636 19.2354910714286  17.0975378787879 19.2857142857143  17.25 19.2857142857143  L 18.2954545454545 19.2857142857143  C 18.4479166666667 19.2857142857143  18.5731534090909 19.2354910714286  18.6711647727273 19.1350446428571  Z M 18.6711647727273 14.8493303571429  C 18.7691761363636 14.7488839285714  18.8181818181818 14.6205357142857  18.8181818181818 14.4642857142857  L 18.8181818181818 13.3928571428571  C 18.8181818181818 13.2366071428571  18.7691761363636 13.1082589285714  18.6711647727273 13.0078125  C 18.5731534090909 12.9073660714286  18.4479166666667 12.8571428571429  18.2954545454545 12.8571428571429  L 17.25 12.8571428571429  C 17.0975378787879 12.8571428571429  16.9723011363636 12.9073660714286  16.8742897727273 13.0078125  C 16.7762784090909 13.1082589285714  16.7272727272727 13.2366071428571  16.7272727272727 13.3928571428571  L 16.7272727272727 14.4642857142857  C 16.7272727272727 14.6205357142857  16.7762784090909 14.7488839285714  16.8742897727273 14.8493303571429  C 16.9723011363636 14.9497767857143  17.0975378787879 15  17.25 15  L 18.2954545454545 15  C 18.4479166666667 15  18.5731534090909 14.9497767857143  18.6711647727273 14.8493303571429  Z M 18.6711647727273 10.5636160714286  C 18.7691761363636 10.4631696428571  18.8181818181818 10.3348214285714  18.8181818181818 10.1785714285714  L 18.8181818181818 9.10714285714286  C 18.8181818181818 8.95089285714285  18.7691761363636 8.82254464285714  18.6711647727273 8.72209821428571  C 18.5731534090909 8.62165178571429  18.4479166666667 8.57142857142857  18.2954545454545 8.57142857142857  L 17.25 8.57142857142857  C 17.0975378787879 8.57142857142857  16.9723011363636 8.62165178571429  16.8742897727273 8.72209821428571  C 16.7762784090909 8.82254464285714  16.7272727272727 8.95089285714285  16.7272727272727 9.10714285714286  L 16.7272727272727 10.1785714285714  C 16.7272727272727 10.3348214285714  16.7762784090909 10.4631696428571  16.8742897727273 10.5636160714286  C 16.9723011363636 10.6640625  17.0975378787879 10.7142857142857  17.25 10.7142857142857  L 18.2954545454545 10.7142857142857  C 18.4479166666667 10.7142857142857  18.5731534090909 10.6640625  18.6711647727273 10.5636160714286  Z M 18.6711647727273 6.27790178571429  C 18.7691761363636 6.17745535714286  18.8181818181818 6.04910714285714  18.8181818181818 5.89285714285714  L 18.8181818181818 4.82142857142857  C 18.8181818181818 4.66517857142857  18.7691761363636 4.53683035714286  18.6711647727273 4.43638392857143  C 18.5731534090909 4.3359375  18.4479166666667 4.28571428571429  18.2954545454545 4.28571428571429  L 17.25 4.28571428571429  C 17.0975378787879 4.28571428571429  16.9723011363636 4.3359375  16.8742897727273 4.43638392857143  C 16.7762784090909 4.53683035714286  16.7272727272727 4.66517857142857  16.7272727272727 4.82142857142857  L 16.7272727272727 5.89285714285714  C 16.7272727272727 6.04910714285714  16.7762784090909 6.17745535714286  16.8742897727273 6.27790178571429  C 16.9723011363636 6.37834821428571  17.0975378787879 6.42857142857143  17.25 6.42857142857143  L 18.2954545454545 6.42857142857143  C 18.4479166666667 6.42857142857143  18.5731534090909 6.37834821428571  18.6711647727273 6.27790178571429  Z " fill-rule="nonzero" fill="#0c0a62" stroke="none" transform="matrix(1 0 0 1 20 370 )" />
  </g>
</svg>