<?xml version="1.0" encoding="utf-8"?>
<svg version="1.1" xmlns:xlink="http://www.w3.org/1999/xlink" width="23px" height="25px" xmlns="http://www.w3.org/2000/svg">
  <g transform="matrix(1 0 0 1 -20 -485 )">
    <path d="M 18.1346153846154 13.1277901785714  C 18.1346153846154 13.2486979166667  18.0931490384615 13.3556547619048  18.0102163461538 13.4486607142857  L 10.9332932692308 20.5915178571429  C 10.8411458333333 20.6752232142857  10.7351762820513 20.7170758928571  10.6153846153846 20.7170758928571  C 10.4955929487179 20.7170758928571  10.3896233974359 20.6752232142857  10.2974759615385 20.5915178571429  L 6.31670673076923 16.5736607142857  C 6.23377403846154 16.4806547619048  6.19230769230769 16.3736979166667  6.19230769230769 16.2527901785714  C 6.19230769230769 16.1318824404762  6.23377403846154 16.0295758928571  6.31670673076923 15.9458705357143  L 6.95252403846154 15.3041294642857  C 7.03545673076923 15.2204241071429  7.13681891025641 15.1785714285714  7.25661057692308 15.1785714285714  C 7.37640224358974 15.1785714285714  7.48237179487179 15.2204241071429  7.57451923076923 15.3041294642857  L 10.6153846153846 18.3733258928571  L 16.7524038461538 12.1791294642857  C 16.8445512820513 12.0954241071429  16.9505208333333 12.0535714285714  17.0703125 12.0535714285714  C 17.1901041666667 12.0535714285714  17.2914663461538 12.0954241071429  17.3743990384615 12.1791294642857  L 18.0102163461538 12.8208705357143  C 18.0931490384615 12.9045758928571  18.1346153846154 13.0068824404762  18.1346153846154 13.1277901785714  Z M 2 9  L 2 23  L 21 23  L 21 9  L 2 9  Z M 6.95252403846154 6.57087053571428  C 7.03545673076923 6.48716517857143  7.07692307692308 6.38020833333333  7.07692307692308 6.25  L 7.07692307692308 2.23214285714286  C 7.07692307692308 2.10193452380952  7.03545673076923 1.99497767857143  6.95252403846154 1.91127232142857  C 6.86959134615385 1.82756696428572  6.76362179487179 1.78571428571428  6.63461538461538 1.78571428571428  L 5.75 1.78571428571428  C 5.62099358974359 1.78571428571428  5.51502403846154 1.82756696428572  5.43209134615385 1.91127232142857  C 5.34915865384615 1.99497767857143  5.30769230769231 2.10193452380952  5.30769230769231 2.23214285714286  L 5.30769230769231 6.25  C 5.30769230769231 6.38020833333333  5.34915865384615 6.48716517857143  5.43209134615385 6.57087053571428  C 5.51502403846154 6.65457589285714  5.62099358974359 6.69642857142857  5.75 6.69642857142857  L 6.63461538461538 6.69642857142857  C 6.76362179487179 6.69642857142857  6.86959134615385 6.65457589285714  6.95252403846154 6.57087053571428  Z M 17.5679086538462 6.57087053571428  C 17.6508413461538 6.48716517857143  17.6923076923077 6.38020833333333  17.6923076923077 6.25  L 17.6923076923077 2.23214285714286  C 17.6923076923077 2.10193452380952  17.6508413461538 1.99497767857143  17.5679086538462 1.91127232142857  C 17.4849759615385 1.82756696428572  17.3790064102564 1.78571428571428  17.25 1.78571428571428  L 16.3653846153846 1.78571428571428  C 16.2363782051282 1.78571428571428  16.1304086538462 1.82756696428572  16.0474759615385 1.91127232142857  C 15.9645432692308 1.99497767857143  15.9230769230769 2.10193452380952  15.9230769230769 2.23214285714286  L 15.9230769230769 6.25  C 15.9230769230769 6.38020833333333  15.9645432692308 6.48716517857143  16.0474759615385 6.57087053571428  C 16.1304086538462 6.65457589285714  16.2363782051282 6.69642857142857  16.3653846153846 6.69642857142857  L 17.25 6.69642857142857  C 17.3790064102564 6.69642857142857  17.4849759615385 6.65457589285714  17.5679086538462 6.57087053571428  Z M 22.4747596153846 4.1015625  C 22.8249198717949 4.45498511904762  23 4.8735119047619  23 5.35714285714286  L 23 23.2142857142857  C 23 23.6979166666667  22.8249198717949 24.116443452381  22.4747596153846 24.4698660714286  C 22.1245993589744 24.8232886904762  21.7099358974359 25  21.2307692307692 25  L 1.76923076923077 25  C 1.2900641025641 25  0.875400641025641 24.8232886904762  0.525240384615385 24.4698660714286  C 0.175080128205128 24.116443452381  0 23.6979166666667  0 23.2142857142857  L 0 5.35714285714286  C 0 4.8735119047619  0.175080128205128 4.45498511904762  0.525240384615385 4.1015625  C 0.875400641025641 3.74813988095238  1.2900641025641 3.57142857142857  1.76923076923077 3.57142857142857  L 3.53846153846154 3.57142857142857  L 3.53846153846154 2.23214285714286  C 3.53846153846154 1.61830357142857  3.75500801282051 1.09281994047619  4.18810096153846 0.655691964285715  C 4.62119391025641 0.218563988095238  5.14182692307692 0  5.75 0  L 6.63461538461538 0  C 7.24278846153846 0  7.76342147435898 0.218563988095238  8.19651442307692 0.655691964285715  C 8.62960737179487 1.09281994047619  8.84615384615385 1.61830357142857  8.84615384615385 2.23214285714286  L 8.84615384615385 3.57142857142857  L 14.1538461538462 3.57142857142857  L 14.1538461538462 2.23214285714286  C 14.1538461538462 1.61830357142857  14.3703926282051 1.09281994047619  14.8034855769231 0.655691964285715  C 15.236578525641 0.218563988095238  15.7572115384615 0  16.3653846153846 0  L 17.25 0  C 17.8581730769231 0  18.3788060897436 0.218563988095238  18.8118990384615 0.655691964285715  C 19.2449919871795 1.09281994047619  19.4615384615385 1.61830357142857  19.4615384615385 2.23214285714286  L 19.4615384615385 3.57142857142857  L 21.2307692307692 3.57142857142857  C 21.7099358974359 3.57142857142857  22.1245993589744 3.74813988095238  22.4747596153846 4.1015625  Z " fill-rule="nonzero" fill="#0c0a62" stroke="none" transform="matrix(1 0 0 1 20 485 )" />
  </g>
</svg>