<?xml version="1.0" encoding="utf-8"?>
<svg version="1.1" xmlns:xlink="http://www.w3.org/1999/xlink" width="29px" height="23px" xmlns="http://www.w3.org/2000/svg">
  <g transform="matrix(1 0 0 1 -20 -318 )">
    <path d="M 13.52466367713 17.25  L 14.4349775784753 17.25  L 16.3206278026906 15.3551136363636  L 13.8497757847534 12.8721590909091  L 11.9641255605381 14.7670454545455  L 11.9641255605381 15.6818181818182  L 13.52466367713 15.6818181818182  L 13.52466367713 17.25  Z M 21.5711883408072 6.02769886363636  C 21.7554185351271 5.84256628787879  21.7608370702541 5.66287878787879  21.5874439461883 5.48863636363636  C 21.4140508221226 5.31439393939394  21.2352391629297 5.31983901515151  21.0510089686099 5.50497159090909  L 15.3615470852018 11.2223011363636  C 15.1773168908819 11.4074337121212  15.1718983557549 11.5871212121212  15.3452914798206 11.7613636363636  C 15.5186846038864 11.9356060606061  15.6974962630792 11.9301609848485  15.8817264573991 11.7450284090909  L 21.5711883408072 6.02769886363636  Z M 22.5627802690583 14.7180397727273  C 22.7795216741405 14.8051609848485  22.8878923766816 14.9630681818182  22.8878923766816 15.1917613636364  L 22.8878923766816 18.2954545454545  C 22.8878923766816 19.5913825757576  22.4300261584454 20.6994554924242  21.5142937219731 21.6196732954545  C 20.5985612855008 22.5398910984848  19.495889387145 23  18.2062780269058 23  L 4.68161434977578 23  C 3.39200298953662 23  2.28933109118087 22.5398910984848  1.37359865470852 21.6196732954545  C 0.457866218236173 20.6994554924242  0 19.5913825757576  0 18.2954545454545  L 0 4.70454545454546  C 0 3.40861742424242  0.457866218236173 2.30054450757576  1.37359865470852 1.38032670454546  C 2.28933109118087 0.460108901515149  3.39200298953662 0  4.68161434977578 0  L 18.2062780269058 0  C 18.8890134529148 0  19.5229820627803 0.136126893939393  20.1081838565022 0.408380681818181  C 20.2707399103139 0.484611742424241  20.3682735426009 0.609848484848484  20.4007847533632 0.784090909090908  C 20.4332959641256 0.969223484848484  20.3845291479821 1.12713068181818  20.2544843049327 1.2578125  L 19.4579596412556 2.05823863636364  C 19.3062406576981 2.21070075757576  19.1328475336323 2.25426136363636  18.9377802690583 2.18892045454546  C 18.6885276532138 2.12357954545454  18.4446935724963 2.09090909090909  18.2062780269058 2  L 4.68161434977578 2  C 3.96636771300448 2.09090909090909  3.35407324364724 2.34682765151515  2.84473094170404 2.85866477272727  C 2.33538863976084 3.37050189393939  2.08071748878924 3.98579545454546  2 4.70454545454546  L 2 18.2954545454545  C 2.08071748878924 19.0142045454545  2.33538863976084 19.6294981060606  2.84473094170404 20.1413352272727  C 3.35407324364724 20.6531723484848  3.96636771300448 20.9090909090909  4.68161434977578 21  L 18.2062780269058 21  C 18.9215246636771 20.9090909090909  19.5338191330344 20.6531723484848  20.0431614349776 20.1413352272727  C 20.5525037369208 19.6294981060606  20.8071748878924 19.0142045454545  20.8071748878924 18.2954545454545  L 20.8071748878924 16.2372159090909  C 20.8071748878924 16.0956439393939  20.8559417040359 15.9758522727273  20.9534753363229 15.8778409090909  L 21.9938340807175 14.8323863636364  C 22.1563901345291 14.6690340909091  22.3460388639761 14.6309185606061  22.5627802690583 14.7180397727273  Z M 10.4035874439462 14.1136363636364  L 21.3273542600897 3.13636363636364  L 26.0089686098655 7.84090909090909  L 15.085201793722 18.8181818181818  L 10.4035874439462 18.8181818181818  L 10.4035874439462 14.1136363636364  Z M 29 4.18181818181818  C 29 4.61742424242424  28.8482810164425 4.98768939393939  28.5448430493274 5.29261363636364  L 27.0493273542601 6.79545454545455  L 22.3677130044843 2.09090909090909  L 23.8632286995516 0.588068181818181  C 24.1666666666667 0.283143939393937  24.5351270553064 0.130681818181819  24.9686098654709 0.130681818181819  C 25.4020926756353 0.130681818181819  25.770553064275 0.283143939393937  26.0739910313901 0.588068181818181  L 28.5448430493274 3.07102272727273  C 28.8482810164425 3.37594696969697  29 3.74621212121212  29 4.18181818181818  Z " fill-rule="nonzero" fill="#0c0a62" stroke="none" transform="matrix(1 0 0 1 20 318 )" />
  </g>
</svg>