<?xml version="1.0" encoding="utf-8"?>
<svg version="1.1" xmlns:xlink="http://www.w3.org/1999/xlink" width="21px" height="24px" xmlns="http://www.w3.org/2000/svg">
  <g transform="matrix(1 0 0 1 -20 -149 )">
    <path d="M 15.8046875 0.910714285714286  L 20.0703125 5.08928571428571  C 20.3255208333333 5.33928571428571  20.5442708333333 5.67857142857143  20.7265625 6.10714285714286  C 20.9088541666667 6.53571428571429  21 6.92857142857143  21 7.28571428571429  L 21 22.7142857142857  C 21 23.0714285714286  20.8723958333333 23.375  20.6171875 23.625  C 20.3619791666667 23.875  20.0520833333333 24  19.6875 24  L 1.3125 24  C 0.947916666666667 24  0.638020833333333 23.875  0.3828125 23.625  C 0.127604166666667 23.375  0 23.0714285714286  0 22.7142857142857  L 0 1.28571428571429  C 0 0.928571428571428  0.127604166666667 0.624999999999999  0.3828125 0.375  C 0.638020833333333 0.125000000000001  0.947916666666667 0  1.3125 0  L 13.5625 0  C 13.9270833333333 0  14.328125 0.0892857142857153  14.765625 0.267857142857143  C 15.203125 0.446428571428571  15.5494791666667 0.660714285714285  15.8046875 0.910714285714286  Z M 14.560546875 2.11607142857143  C 14.451171875 2.00892857142857  14.2643229166667 1.91071428571428  14 1.82142857142857  L 14 6.85714285714286  L 19.140625 6.85714285714286  C 19.0494791666667 6.59821428571428  18.94921875 6.41517857142857  18.83984375 6.30803571428571  L 14.560546875 2.11607142857143  Z M 2 22  L 19 22  L 19 8.57142857142857  L 13.5625 8.57142857142857  C 13.1979166666667 8.57142857142857  12.8880208333333 8.44642857142857  12.6328125 8.19642857142857  C 12.3776041666667 7.94642857142857  12.25 7.64285714285714  12.25 7.28571428571429  L 12.25 2  L 2 2  L 2 22  Z " fill-rule="nonzero" fill="#0c0a62" stroke="none" transform="matrix(1 0 0 1 20 149 )" />
  </g>
</svg>