<?xml version="1.0" encoding="utf-8"?>
<svg version="1.1" xmlns:xlink="http://www.w3.org/1999/xlink" width="26px" height="31px" xmlns="http://www.w3.org/2000/svg">
  <g transform="matrix(1 0 0 1 -20 -258 )">
    <path d="M 8.27272727272727 16.6923076923077  L 10.6363636363636 28.6153846153846  L 12.4090909090909 20.2692307692308  L 10.6363636363636 17.8846153846154  L 8.27272727272727 16.6923076923077  Z M 13.5909090909091 20.2692307692308  L 15.3636363636364 28.6153846153846  L 17.7272727272727 16.6923076923077  L 15.3636363636364 17.8846153846154  L 13.5909090909091 20.2692307692308  Z M 18.2443181818182 10.3022836538462  C 18.2689393939394 10.1905048076923  18.2935606060606 10.0228365384615  18.3181818181818 9.79927884615385  C 18.2935606060606 9.74959935897436  18.2689393939394 9.71233974358974  18.2443181818182 9.6875  C 18.1212121212121 9.58814102564102  17.530303030303 9.53846153846154  16.4715909090909 9.53846153846154  C 15.6098484848485 9.53846153846154  14.5819128787879 9.65645032051282  13.3877840909091 9.89242788461538  C 13.3016098484848 9.91726762820513  13.1723484848485 9.9296875  13 9.9296875  C 12.8276515151515 9.9296875  12.6983901515152 9.91726762820513  12.6122159090909 9.89242788461538  C 11.4180871212121 9.65645032051282  10.3901515151515 9.53846153846154  9.52840909090909 9.53846153846154  C 8.46969696969697 9.53846153846154  7.87878787878788 9.58814102564102  7.75568181818182 9.6875  C 7.73106060606061 9.71233974358974  7.7064393939394 9.74959935897436  7.68181818181818 9.79927884615385  C 7.7064393939394 10.0228365384615  7.73106060606061 10.1905048076923  7.75568181818182 10.3022836538462  C 7.78030303030303 10.3395432692308  7.8264678030303 10.3799078525641  7.89417613636364 10.4233774038462  C 7.96188446969697 10.4668469551282  8.00804924242424 10.5320512820513  8.03267045454546 10.6189903846154  C 8.05729166666667 10.6686698717949  8.10345643939394 10.7959735576923  8.17116477272727 11.0009014423077  C 8.23887310606061 11.2058293269231  8.28196022727273 11.3331330128205  8.30042613636364 11.3828125  C 8.31889204545455 11.4324919871795  8.36505681818182 11.5380608974359  8.43892045454546 11.6995192307692  C 8.51278409090909 11.8609775641026  8.56510416666667 11.966546474359  8.59588068181818 12.0162259615385  C 8.6266571969697 12.0659054487179  8.68205492424243 12.152844551282  8.76207386363636 12.2770432692308  C 8.8420928030303 12.4012419871795  8.91595643939394 12.4850761217949  8.98366477272727 12.5285456730769  C 9.05137310606061 12.572015224359  9.13754734848485 12.6310096153846  9.2421875 12.7055288461538  C 9.34682765151515 12.7800480769231  9.45454545454546 12.8297275641026  9.56534090909091 12.8545673076923  C 9.67613636363636 12.879407051282  9.80232007575758 12.9042467948718  9.94389204545455 12.9290865384615  C 10.0854640151515 12.9539262820513  10.2362689393939 12.9663461538462  10.3963068181818 12.9663461538462  C 10.8394886363636 12.9663461538462  11.2026515151515 12.8887219551282  11.4857954545455 12.7334735576923  C 11.7689393939394 12.5782251602564  11.9689867424242 12.3919270833333  12.0859375 12.1745793269231  C 12.2028882575758 11.9572315705128  12.2921401515152 11.7429887820513  12.3536931818182 11.5318509615385  C 12.4152462121212 11.3207131410256  12.4860321969697 11.1375200320513  12.5660511363636 10.9822716346154  C 12.6460700757576 10.8270232371795  12.7537878787879 10.7493990384615  12.8892045454545 10.7493990384615  L 13.1107954545455 10.7493990384615  C 13.2462121212121 10.7493990384615  13.3539299242424 10.8270232371795  13.4339488636364 10.9822716346154  C 13.5139678030303 11.1375200320513  13.5847537878788 11.3207131410256  13.6463068181818 11.5318509615385  C 13.7078598484848 11.7429887820513  13.7971117424242 11.9572315705128  13.9140625 12.1745793269231  C 14.0310132575758 12.3919270833333  14.2310606060606 12.5782251602564  14.5142045454545 12.7334735576923  C 14.7973484848485 12.8887219551282  15.1605113636364 12.9663461538462  15.6036931818182 12.9663461538462  C 15.7637310606061 12.9663461538462  15.9145359848485 12.9539262820513  16.0561079545455 12.9290865384615  C 16.1976799242424 12.9042467948718  16.3238636363636 12.879407051282  16.4346590909091 12.8545673076923  C 16.5454545454545 12.8297275641026  16.6531723484848 12.7800480769231  16.7578125 12.7055288461538  C 16.8624526515152 12.6310096153846  16.9486268939394 12.572015224359  17.0163352272727 12.5285456730769  C 17.0840435606061 12.4850761217949  17.1579071969697 12.4012419871795  17.2379261363636 12.2770432692308  C 17.3179450757576 12.152844551282  17.3733428030303 12.0659054487179  17.4041193181818 12.0162259615385  C 17.4348958333333 11.966546474359  17.4872159090909 11.8609775641026  17.5610795454545 11.6995192307692  C 17.6349431818182 11.5380608974359  17.6811079545455 11.4324919871795  17.6995738636364 11.3828125  C 17.7180397727273 11.3331330128205  17.7611268939394 11.2058293269231  17.8288352272727 11.0009014423077  C 17.8965435606061 10.7959735576923  17.9427083333333 10.6686698717949  17.9673295454545 10.6189903846154  C 17.9919507575758 10.5320512820513  18.038115530303 10.4668469551282  18.1058238636364 10.4233774038462  C 18.1735321969697 10.3799078525641  18.219696969697 10.3395432692308  18.2443181818182 10.3022836538462  Z M 25.8522727272727 23.4083533653846  C 25.9507575757576 24.2963741987179  26 25.2185496794872  26 26.1748798076923  C 26 27.6776842948718  25.5506628787879 28.8575721153846  24.6519886363636 29.7145432692308  C 23.7533143939394 30.5715144230769  22.5591856060606 31  21.0696022727273 31  L 4.93039772727273 31  C 3.44081439393939 31  2.24668560606061 30.5715144230769  1.34801136363636 29.7145432692308  C 0.449337121212121 28.8575721153846  0 27.6776842948718  0 26.1748798076923  C 0 25.4172676282051  0.0276988636363636 24.6844951923077  0.0830965909090909 23.9765625  C 0.138494318181818 23.2686298076923  0.255445075757576 22.4892828525641  0.433948863636364 21.6385216346154  C 0.612452651515152 20.7877604166667  0.843276515151515 20.0208333333333  1.12642045454545 19.3377403846154  C 1.40956439393939 18.6546474358974  1.80042613636364 18.0119190705128  2.29900568181818 17.4095552884615  C 2.79758522727273 16.8071915064103  3.37310606060606 16.3445512820513  4.02556818181818 16.0216346153846  L 2.36363636363636 11.9230769230769  L 6.31534090909091 11.9230769230769  C 6.04450757575758 11.1282051282051  5.90909090909091 10.3333333333333  5.90909090909091 9.53846153846154  C 5.90909090909091 9.38942307692308  5.92140151515152 9.19070512820513  5.94602272727273 8.94230769230769  C 3.55776515151515 8.44551282051282  2.36363636363636 7.84935897435897  2.36363636363636 7.15384615384615  C 2.36363636363636 6.44591346153846  3.65625 5.83112980769231  6.24147727272727 5.30949519230769  C 6.45075757575758 4.53946314102564  6.76775568181818 3.70733173076923  7.19247159090909 2.81310096153846  C 7.6171875 1.91887019230769  8.05113636363636 1.2109375  8.49431818181818 0.689302884615383  C 8.88825757575758 0.22976762820513  9.35606060606061 0  9.89772727272727 0  C 10.2670454545455 0  10.7840909090909 0.192508012820516  11.4488636363636 0.577524038461539  C 12.1136363636364 0.962540064102562  12.6306818181818 1.15504807692308  13 1.15504807692308  C 13.3693181818182 1.15504807692308  13.8863636363636 0.962540064102562  14.5511363636364 0.577524038461539  C 15.2159090909091 0.192508012820516  15.7329545454545 0  16.1022727272727 0  C 16.6439393939394 0  17.1117424242424 0.22976762820513  17.5056818181818 0.689302884615383  C 17.9488636363636 1.2109375  18.3828125 1.91887019230769  18.8075284090909 2.81310096153846  C 19.2322443181818 3.70733173076923  19.5492424242424 4.53946314102564  19.7585227272727 5.30949519230769  C 22.34375 5.83112980769231  23.6363636363636 6.44591346153846  23.6363636363636 7.15384615384615  C 23.6363636363636 7.84935897435897  22.4422348484849 8.44551282051282  20.0539772727273 8.94230769230769  C 20.1401515151515 9.94831730769231  20.0170454545455 10.941907051282  19.6846590909091 11.9230769230769  L 23.6363636363636 11.9230769230769  L 22.1221590909091 16.1147836538462  C 22.8977272727273 16.5246394230769  23.5594223484849 17.1238982371795  24.1072443181818 17.9125600961538  C 24.6550662878788 18.7012219551282  25.0582386363636 19.5923477564103  25.3167613636364 20.5859375  C 25.5752840909091 21.5795272435897  25.7537878787879 22.5203325320513  25.8522727272727 23.4083533653846  Z " fill-rule="nonzero" fill="#0c0a62" stroke="none" transform="matrix(1 0 0 1 20 258 )" />
  </g>
</svg>