<?xml version="1.0" encoding="utf-8"?>
<svg version="1.1" xmlns:xlink="http://www.w3.org/1999/xlink" width="33px" height="25px" xmlns="http://www.w3.org/2000/svg">
  <g transform="matrix(1 0 0 1 -16 -152 )">
    <path d="M 15.90380859375 18.0582682291667  C 16.30126953125 17.5971137152778  16.5 17.0193142361111  16.5 16.3248697916667  C 16.5 15.6304253472222  16.45166015625 14.9929470486111  16.35498046875 14.4124348958333  C 16.25830078125 13.8319227430556  16.099853515625 13.2731119791667  15.879638671875 12.7360026041667  C 15.659423828125 12.1988932291667  15.33447265625 11.7757161458333  14.90478515625 11.4664713541667  C 14.47509765625 11.1572265625  13.9541015625 11.0026041666667  13.341796875 11.0026041666667  C 13.27734375 11.0460069444444  13.1162109375 11.1436631944444  12.8583984375 11.2955729166667  C 12.6005859375 11.4474826388889  12.399169921875 11.5641276041667  12.254150390625 11.6455078125  C 12.109130859375 11.7268880208333  11.91845703125 11.8218315972222  11.68212890625 11.9303385416667  C 11.44580078125 12.0388454861111  11.21484375 12.1175130208333  10.9892578125 12.1663411458333  C 10.763671875 12.2151692708333  10.5380859375 12.2395833333333  10.3125 12.2395833333333  C 10.0869140625 12.2395833333333  9.861328125 12.2151692708333  9.6357421875 12.1663411458333  C 9.41015625 12.1175130208333  9.17919921875 12.0388454861111  8.94287109375 11.9303385416667  C 8.70654296875 11.8218315972222  8.515869140625 11.7268880208333  8.370849609375 11.6455078125  C 8.225830078125 11.5641276041667  8.0244140625 11.4474826388889  7.7666015625 11.2955729166667  C 7.5087890625 11.1436631944444  7.34765625 11.0460069444444  7.283203125 11.0026041666667  C 6.6708984375 11.0026041666667  6.14990234375 11.1572265625  5.72021484375 11.4664713541667  C 5.29052734375 11.7757161458333  4.965576171875 12.1988932291667  4.745361328125 12.7360026041667  C 4.525146484375 13.2731119791667  4.36669921875 13.8319227430556  4.27001953125 14.4124348958333  C 4.17333984375 14.9929470486111  4.125 15.6304253472222  4.125 16.3248697916667  C 4.125 17.0193142361111  4.32373046875 17.5971137152778  4.72119140625 18.0582682291667  C 5.11865234375 18.5194227430556  5.607421875 18.75  6.1875 18.75  L 14.4375 18.75  C 15.017578125 18.75  15.50634765625 18.5194227430556  15.90380859375 18.0582682291667  Z M 12.898681640625 10.4736328125  C 13.613037109375 9.75206163194444  13.97021484375 8.88129340277778  13.97021484375 7.861328125  C 13.97021484375 6.84136284722222  13.613037109375 5.97059461805556  12.898681640625 5.2490234375  C 12.184326171875 4.52745225694444  11.322265625 4.16666666666667  10.3125 4.16666666666667  C 9.302734375 4.16666666666667  8.440673828125 4.52745225694444  7.726318359375 5.2490234375  C 7.011962890625 5.97059461805556  6.65478515625 6.84136284722222  6.65478515625 7.861328125  C 6.65478515625 8.88129340277778  7.011962890625 9.75206163194444  7.726318359375 10.4736328125  C 8.440673828125 11.1952039930556  9.302734375 11.5559895833333  10.3125 11.5559895833333  C 11.322265625 11.5559895833333  12.184326171875 11.1952039930556  12.898681640625 10.4736328125  Z M 28.72998046875 16.5201822916667  C 28.82666015625 16.4225260416667  28.875 16.2977430555556  28.875 16.1458333333333  L 28.875 15.1041666666667  C 28.875 14.9522569444444  28.82666015625 14.8274739583333  28.72998046875 14.7298177083333  C 28.63330078125 14.6321614583333  28.509765625 14.5833333333333  28.359375 14.5833333333333  L 19.078125 14.5833333333333  C 18.927734375 14.5833333333333  18.80419921875 14.6321614583333  18.70751953125 14.7298177083333  C 18.61083984375 14.8274739583333  18.5625 14.9522569444444  18.5625 15.1041666666667  L 18.5625 16.1458333333333  C 18.5625 16.2977430555556  18.61083984375 16.4225260416667  18.70751953125 16.5201822916667  C 18.80419921875 16.6178385416667  18.927734375 16.6666666666667  19.078125 16.6666666666667  L 28.359375 16.6666666666667  C 28.509765625 16.6666666666667  28.63330078125 16.6178385416667  28.72998046875 16.5201822916667  Z M 28.705810546875 12.3291015625  C 28.818603515625 12.2151692708333  28.875 12.0768229166667  28.875 11.9140625  L 28.875 11.0026041666667  C 28.875 10.83984375  28.818603515625 10.7014973958333  28.705810546875 10.5875651041667  C 28.593017578125 10.4736328125  28.4560546875 10.4166666666667  28.294921875 10.4166666666667  L 19.142578125 10.4166666666667  C 18.9814453125 10.4166666666667  18.844482421875 10.4736328125  18.731689453125 10.5875651041667  C 18.618896484375 10.7014973958333  18.5625 10.83984375  18.5625 11.0026041666667  L 18.5625 11.9140625  C 18.5625 12.0768229166667  18.618896484375 12.2151692708333  18.731689453125 12.3291015625  C 18.844482421875 12.4430338541667  18.9814453125 12.5  19.142578125 12.5  L 28.294921875 12.5  C 28.4560546875 12.5  28.593017578125 12.4430338541667  28.705810546875 12.3291015625  Z M 28.72998046875 8.18684895833333  C 28.82666015625 8.08919270833333  28.875 7.96440972222222  28.875 7.8125  L 28.875 6.77083333333333  C 28.875 6.61892361111111  28.82666015625 6.494140625  28.72998046875 6.396484375  C 28.63330078125 6.298828125  28.509765625 6.25  28.359375 6.25  L 19.078125 6.25  C 18.927734375 6.25  18.80419921875 6.298828125  18.70751953125 6.396484375  C 18.61083984375 6.494140625  18.5625 6.61892361111111  18.5625 6.77083333333333  L 18.5625 7.8125  C 18.5625 7.96440972222222  18.61083984375 8.08919270833333  18.70751953125 8.18684895833333  C 18.80419921875 8.28450520833333  18.927734375 8.33333333333333  19.078125 8.33333333333333  L 28.359375 8.33333333333333  C 28.509765625 8.33333333333333  28.63330078125 8.28450520833333  28.72998046875 8.18684895833333  Z M 32.24267578125 0.764973958333334  C 32.74755859375 1.27495659722222  33 1.88802083333333  33 2.60416666666667  L 33 22.3958333333333  C 33 23.1119791666667  32.74755859375 23.7250434027778  32.24267578125 24.2350260416667  C 31.73779296875 24.7450086805556  31.130859375 25  30.421875 25  L 24.75 25  L 24.75 23.4375  C 24.75 23.2855902777778  24.70166015625 23.1608072916667  24.60498046875 23.0631510416667  C 24.50830078125 22.9654947916667  24.384765625 22.9166666666667  24.234375 22.9166666666667  L 23.203125 22.9166666666667  C 23.052734375 22.9166666666667  22.92919921875 22.9654947916667  22.83251953125 23.0631510416667  C 22.73583984375 23.1608072916667  22.6875 23.2855902777778  22.6875 23.4375  L 22.6875 25  L 10.3125 25  L 10.3125 23.4375  C 10.3125 23.2855902777778  10.26416015625 23.1608072916667  10.16748046875 23.0631510416667  C 10.07080078125 22.9654947916667  9.947265625 22.9166666666667  9.796875 22.9166666666667  L 8.765625 22.9166666666667  C 8.615234375 22.9166666666667  8.49169921875 22.9654947916667  8.39501953125 23.0631510416667  C 8.29833984375 23.1608072916667  8.25 23.2855902777778  8.25 23.4375  L 8.25 25  L 2.578125 25  C 1.869140625 25  1.26220703125 24.7450086805556  0.75732421875 24.2350260416667  C 0.25244140625 23.7250434027778  0 23.1119791666667  0 22.3958333333333  L 0 2.60416666666667  C 0 1.88802083333333  0.25244140625 1.27495659722222  0.75732421875 0.764973958333334  C 1.26220703125 0.254991319444442  1.869140625 0  2.578125 0  L 30.421875 0  C 31.130859375 0  31.73779296875 0.254991319444442  32.24267578125 0.764973958333334  Z " fill-rule="nonzero" fill="#082768" stroke="none" transform="matrix(1 0 0 1 16 152 )" />
  </g>
</svg>