<?xml version="1.0" encoding="utf-8"?>
<svg version="1.1" xmlns:xlink="http://www.w3.org/1999/xlink" width="27px" height="21px" xmlns="http://www.w3.org/2000/svg">
  <g transform="matrix(1 0 0 1 -243 -636 )">
    <path d="M 19.7979910714286 3.80056777856636  C 20.7421875 4.97303051809794  21.2142857142857 6.24982256919801  21.2142857142857 7.63094393186657  C 21.2142857142857 9.01206529453513  20.7421875 10.2888573456352  19.7979910714286 11.4613200851668  C 18.8537946428571 12.6337828246984  17.5655691964286 13.5603264726757  15.9333147321429 14.2409510290987  C 14.3010602678571 14.9215755855216  12.5256696428571 15.2618878637331  10.6071428571429 15.2618878637331  C 9.74330357142857 15.2618878637331  8.859375 15.1823988644429  7.95535714285714 15.0234208658623  C 6.70982142857143 15.8977998580554  5.31361607142857 16.5337118523776  3.76674107142857 16.931156848829  C 3.40513392857143 17.0205819730305  2.97321428571429 17.1000709723208  2.47098214285714 17.1696238466998  L 2.42578125 17.1696238466998  C 2.31529017857143 17.1696238466998  2.21233258928571 17.1298793470546  2.11690848214286 17.0503903477644  C 2.021484375 16.9709013484741  1.96372767857143 16.8665720369056  1.94363839285714 16.7374024130589  C 1.93359375 16.7075940383251  1.92857142857143 16.6753016323634  1.92857142857143 16.6405251951739  C 1.92857142857143 16.6057487579844  1.93108258928571 16.5734563520227  1.93610491071429 16.5436479772889  C 1.94112723214286 16.513839602555  1.951171875 16.4840312278212  1.96623883928571 16.4542228530873  L 2.00390625 16.3797019162527  C 2.00390625 16.3797019162527  2.021484375 16.3523775727466  2.056640625 16.2977288857346  C 2.091796875 16.2430801987225  2.11188616071429 16.2182398864443  2.11690848214286 16.2232079488999  C 2.12193080357143 16.2281760113556  2.14453125 16.2033356990774  2.18470982142857 16.1486870120653  C 2.22488839285714 16.0940383250532  2.24497767857143 16.0716820440028  2.24497767857143 16.0816181689141  C 2.29520089285714 16.0220014194464  2.41071428571429 15.8977998580554  2.59151785714286 15.709013484741  C 2.77232142857143 15.5202271114265  2.90290178571429 15.3736692689851  2.98325892857143 15.2693399574166  C 3.06361607142857 15.1650106458481  3.17661830357143 15.0209368346345  3.322265625 14.8371185237757  C 3.46791294642857 14.653300212917  3.59347098214286 14.4620298083747  3.69893973214286 14.263307310149  C 3.80440848214286 14.0645848119233  3.90736607142857 13.8459900638751  4.0078125 13.6075230660043  C 2.76227678571429 12.8921220723918  1.78292410714286 12.0127750177431  1.06975446428571 10.9694819020582  C 0.356584821428571 9.92618878637331  0 8.81334279630944  0 7.63094393186657  C 0 6.24982256919801  0.472098214285714 4.97303051809794  1.41629464285714 3.80056777856636  C 2.36049107142857 2.62810503903477  3.64871651785714 1.70156139105748  5.28097098214286 1.02093683463449  C 6.91322544642857 0.340312278211497  8.68861607142857 0  10.6071428571429 0  C 12.5256696428571 0  14.3010602678571 0.340312278211497  15.9333147321429 1.02093683463449  C 17.5655691964286 1.70156139105748  18.8537946428571 2.62810503903477  19.7979910714286 3.80056777856636  Z M 25.8699776785714 8.01845280340667  C 26.6233258928571 9.08161816891412  27 10.2242725337119  27 11.4464158977999  C 27 12.638750887154  26.6434151785714 13.7540809084457  25.9302455357143 14.7924059616749  C 25.2170758928571 15.8307310149042  24.2377232142857 16.7075940383251  22.9921875 17.4229950319375  C 23.0926339285714 17.6614620298084  23.1955915178571 17.8800567778566  23.3010602678571 18.0787792760823  C 23.4065290178571 18.277501774308  23.5320870535714 18.4687721788503  23.677734375 18.652590489709  C 23.8233816964286 18.8364088005678  23.9363839285714 18.9804826117814  24.0167410714286 19.0848119233499  C 24.0970982142857 19.1891412349184  24.2276785714286 19.3356990773598  24.4084821428571 19.5244854506742  C 24.5892857142857 19.7132718239886  24.7047991071429 19.8374733853797  24.7550223214286 19.8970901348474  C 24.7650669642857 19.9070262597587  24.78515625 19.9293825408091  24.8152901785714 19.9641589779986  C 24.8454241071429 19.9989354151881  24.8680245535714 20.0237757274663  24.8830915178571 20.0386799148332  C 24.8981584821429 20.0535841022001  24.9182477678571 20.0784244144784  24.943359375 20.1132008516678  C 24.9684709821429 20.1479772888573  24.9860491071429 20.1753016323634  24.99609375 20.1951738821859  L 25.0337611607143 20.2696948190206  C 25.0337611607143 20.2696948190206  25.0438058035714 20.2995031937544  25.0638950892857 20.3591199432221  C 25.083984375 20.4187366926899  25.0864955357143 20.4510290986515  25.0714285714286 20.4559971611072  C 25.0563616071429 20.4609652235628  25.0513392857143 20.4932576295245  25.0563616071429 20.5528743789922  C 25.0262276785714 20.6919801277502  24.9609375 20.8012775017743  24.8604910714286 20.8807665010646  C 24.7600446428571 20.9602555003549  24.6495535714286 20.9950319375444  24.5290178571429 20.9850958126331  C 24.0267857142857 20.9155429382541  23.5948660714286 20.8360539389638  23.2332589285714 20.7466288147622  C 21.6863839285714 20.3491838183109  20.2901785714286 19.7132718239886  19.0446428571429 18.8388928317956  C 18.140625 18.9978708303762  17.2566964285714 19.0773598296664  16.3928571428571 19.0773598296664  C 13.6707589285714 19.0773598296664  11.3002232142857 18.4215755855216  9.28125 17.1100070972321  C 9.86383928571429 17.1497515968772  10.3058035714286 17.1696238466998  10.6071428571429 17.1696238466998  C 12.2243303571429 17.1696238466998  13.7762276785714 16.9460610361959  15.2628348214286 16.4989354151881  C 16.7494419642857 16.0518097941803  18.0753348214286 15.4109297374024  19.2405133928571 14.5762952448545  C 20.49609375 13.6621717530163  21.4603794642857 12.6089425124202  22.1333705357143 11.416607523066  C 22.8063616071429 10.2242725337119  23.1428571428571 8.96238466997871  23.1428571428571 7.63094393186657  C 23.1428571428571 6.86586231369766  23.02734375 6.11071682044003  22.7963169642857 5.36550745209368  C 24.0920758928571 6.07097232079489  25.1166294642857 6.95528743789922  25.8699776785714 8.01845280340667  Z " fill-rule="nonzero" fill="#ffffff" stroke="none" fill-opacity="0.996078431372549" transform="matrix(1 0 0 1 243 636 )" />
  </g>
</svg>