<?xml version="1.0" encoding="utf-8"?>
<svg version="1.1" xmlns:xlink="http://www.w3.org/1999/xlink" width="15px" height="19px" xmlns="http://www.w3.org/2000/svg">
  <g transform="matrix(1 0 0 1 -28 -637 )">
    <path d="M 14.900390625 13.7366536458333  C 14.966796875 14.3592664930556  15 15.0210503472222  15 15.7220052083333  C 15 16.6208767361111  14.755859375 17.3919270833333  14.267578125 18.03515625  C 13.779296875 18.6783854166667  13.19140625 19  12.50390625 19  L 2.49609375 19  C 1.80859375 19  1.220703125 18.6783854166667  0.732421875 18.03515625  C 0.244140625 17.3919270833333  0 16.6208767361111  0 15.7220052083333  C 0 15.0210503472222  0.0332031250000001 14.3592664930556  0.0996093750000001 13.7366536458333  C 0.166015625 13.1140407986111  0.2890625 12.4873046875  0.46875 11.8564453125  C 0.6484375 11.2255859375  0.876953125 10.6854383680556  1.154296875 10.2360026041667  C 1.431640625 9.78656684027778  1.798828125 9.41959635416667  2.255859375 9.13509114583333  C 2.712890625 8.8505859375  3.23828125 8.70833333333333  3.83203125 8.70833333333333  C 4.85546875 9.76388888888889  6.078125 10.2916666666667  7.5 10.2916666666667  C 8.921875 10.2916666666667  10.14453125 9.76388888888889  11.16796875 8.70833333333333  C 11.76171875 8.70833333333333  12.287109375 8.8505859375  12.744140625 9.13509114583333  C 13.201171875 9.41959635416667  13.568359375 9.78656684027778  13.845703125 10.2360026041667  C 14.123046875 10.6854383680556  14.3515625 11.2255859375  14.53125 11.8564453125  C 14.7109375 12.4873046875  14.833984375 13.1140407986111  14.900390625 13.7366536458333  Z M 10.681640625 1.3916015625  C 11.560546875 2.3193359375  12 3.43880208333333  12 4.75  C 12 6.06119791666667  11.560546875 7.1806640625  10.681640625 8.1083984375  C 9.802734375 9.0361328125  8.7421875 9.5  7.5 9.5  C 6.2578125 9.5  5.197265625 9.0361328125  4.318359375 8.1083984375  C 3.439453125 7.1806640625  3 6.06119791666667  3 4.75  C 3 3.43880208333333  3.439453125 2.3193359375  4.318359375 1.3916015625  C 5.197265625 0.4638671875  6.2578125 0  7.5 0  C 8.7421875 0  9.802734375 0.4638671875  10.681640625 1.3916015625  Z " fill-rule="nonzero" fill="#ffffff" stroke="none" fill-opacity="0.996078431372549" transform="matrix(1 0 0 1 28 637 )" />
  </g>
</svg>