<?xml version="1.0" encoding="utf-8"?>
<svg version="1.1" xmlns:xlink="http://www.w3.org/1999/xlink" width="80px" height="80px" xmlns="http://www.w3.org/2000/svg">
  <g transform="matrix(1 0 0 1 -263 -113 )">
    <path d="M 264 117  A 3 3 0 0 1 267 114 L 339 114  A 3 3 0 0 1 342 117 L 342 189  A 3 3 0 0 1 339 192 L 267 192  A 3 3 0 0 1 264 189 L 264 117  Z " fill-rule="nonzero" fill="#eaefff" stroke="none" />
    <path d="M 263.5 117  A 3.5 3.5 0 0 1 267 113.5 L 339 113.5  A 3.5 3.5 0 0 1 342.5 117 L 342.5 189  A 3.5 3.5 0 0 1 339 192.5 L 267 192.5  A 3.5 3.5 0 0 1 263.5 189 L 263.5 117  Z " stroke-width="1" stroke="#000000" fill="none" stroke-opacity="0.6" />
  </g>
</svg>