<?xml version="1.0" encoding="utf-8"?>
<svg version="1.1" xmlns:xlink="http://www.w3.org/1999/xlink" width="80px" height="80px" xmlns="http://www.w3.org/2000/svg">
  <g transform="matrix(1 0 0 1 -263 -113 )">
    <path d="M 263 113  L 343 113  L 343 193  L 263 193  L 263 113  " fill-rule="nonzero" fill="#cccccc" stroke="none" />
    <path d="M 269 119  L 337 119  L 337 187  L 269 187  L 269 119  " fill-rule="nonzero" fill="#ffffff" stroke="none" />
    <path d="M 310.6 137  C 307.24 137  304.6 134.36  304.6 131  C 304.6 127.64  307.24 125  310.6 125  C 313.96 125  316.6 127.64  316.6 131  C 316.6 134.36  313.96 137  310.6 137  " fill-rule="nonzero" fill="#cccccc" stroke="none" />
    <path d="M 271 185  L 271 149.8  L 287 133.8  L 309.4 146.6  L 322.2 143.4  L 335 146.6  L 335 185  L 271 185  " fill-rule="nonzero" fill="#169bd5" stroke="none" />
  </g>
</svg>