<?xml version="1.0" encoding="utf-8"?>
<svg version="1.1" xmlns:xlink="http://www.w3.org/1999/xlink" width="58px" height="47px" xmlns="http://www.w3.org/2000/svg">
  <g transform="matrix(1 0 0 1 -18 -533 )">
    <path d="M 15.4666666666667 16.7857142857143  C 15.4666666666667 19.2161458333333  16.2822916666667 21.4542410714286  17.9135416666667 23.5  C 14.6510416666667 23.5874255952381  11.9826388888889 24.7064732142857  9.90833333333333 26.8571428571429  L 5.86041666666667 26.8571428571429  C 4.20902777777778 26.8571428571429  2.81944444444445 26.5030691964286  1.69166666666667 25.794921875  C 0.563888888888889 25.0867745535714  0 24.05078125  0 22.6869419642857  C 0 16.5146949404762  1.24861111111111 13.4285714285714  3.74583333333333 13.4285714285714  C 3.86666666666667 13.4285714285714  4.3046875 13.6121651785714  5.05989583333333 13.9793526785714  C 5.81510416666667 14.3465401785714  6.796875 14.7180989583333  8.00520833333333 15.0940290178571  C 9.21354166666667 15.469959077381  10.4118055555556 15.6579241071429  11.6 15.6579241071429  C 12.9493055555556 15.6579241071429  14.2885416666667 15.4568452380952  15.6177083333333 15.0546875  C 15.5170138888889 15.7016369047619  15.4666666666667 16.2786458333333  15.4666666666667 16.7857142857143  Z M 50.1609375 37.4924665178571  C 50.2314236111111 38.3754650297619  50.2666666666667 39.2803199404762  50.2666666666667 40.20703125  C 50.2666666666667 42.3052455357143  49.5315972222222 43.9619605654762  48.0614583333333 45.1771763392857  C 46.5913194444445 46.3923921130952  44.6378472222222 47  42.2010416666667 47  L 15.7989583333333 47  C 13.3621527777778 47  11.4086805555556 46.3923921130952  9.93854166666667 45.1771763392857  C 8.46840277777778 43.9619605654762  7.73333333333333 42.3052455357143  7.73333333333333 40.20703125  C 7.73333333333333 39.2803199404762  7.76857638888889 38.3754650297619  7.8390625 37.4924665178571  C 7.90954861111111 36.6094680059524  8.05052083333333 35.6565290178571  8.26197916666667 34.6336495535714  C 8.4734375 33.6107700892857  8.74027777777778 32.6622023809524  9.0625 31.7879464285714  C 9.38472222222222 30.9136904761905  9.81770833333333 30.061290922619  10.3614583333333 29.2307477678571  C 10.9052083333333 28.4002046130952  11.5295138888889 27.6920572916667  12.234375 27.1063058035714  C 12.9392361111111 26.5205543154762  13.8001736111111 26.0528273809524  14.8171875 25.703125  C 15.8342013888889 25.3534226190476  16.9569444444444 25.1785714285714  18.1854166666667 25.1785714285714  C 18.3868055555556 25.1785714285714  18.8197916666667 25.3665364583333  19.484375 25.7424665178571  C 20.1489583333333 26.118396577381  20.8840277777778 26.5380394345238  21.6895833333333 27.0013950892857  C 22.4951388888889 27.4647507440476  23.5725694444444 27.8843936011905  24.921875 28.2603236607143  C 26.2711805555556 28.6362537202381  27.6305555555556 28.82421875  29 28.82421875  C 30.3694444444444 28.82421875  31.7288194444444 28.6362537202381  33.078125 28.2603236607143  C 34.4274305555556 27.8843936011905  35.5048611111111 27.4647507440476  36.3104166666667 27.0013950892857  C 37.1159722222222 26.5380394345238  37.8510416666667 26.118396577381  38.515625 25.7424665178571  C 39.1802083333333 25.3665364583333  39.6131944444444 25.1785714285714  39.8145833333333 25.1785714285714  C 41.0430555555556 25.1785714285714  42.1657986111111 25.3534226190476  43.1828125 25.703125  C 44.1998263888889 26.0528273809524  45.0607638888889 26.5205543154762  45.765625 27.1063058035714  C 46.4704861111111 27.6920572916667  47.0947916666667 28.4002046130952  47.6385416666667 29.2307477678571  C 48.1822916666667 30.061290922619  48.6152777777778 30.9136904761905  48.9375 31.7879464285714  C 49.2597222222222 32.6622023809524  49.5265625 33.6107700892857  49.7380208333333 34.6336495535714  C 49.9494791666667 35.6565290178571  50.0904513888889 36.6094680059524  50.1609375 37.4924665178571  Z M 17.0677083333333 1.96707589285714  C 18.578125 3.27845982142857  19.3333333333333 4.86086309523809  19.3333333333333 6.71428571428572  C 19.3333333333333 8.56770833333333  18.578125 10.1501116071429  17.0677083333333 11.4614955357143  C 15.5572916666667 12.7728794642857  13.7347222222222 13.4285714285714  11.6 13.4285714285714  C 9.46527777777778 13.4285714285714  7.64270833333333 12.7728794642857  6.13229166666667 11.4614955357143  C 4.621875 10.1501116071429  3.86666666666667 8.56770833333333  3.86666666666667 6.71428571428572  C 3.86666666666667 4.86086309523809  4.621875 3.27845982142857  6.13229166666667 1.96707589285714  C 7.64270833333333 0.655691964285717  9.46527777777778 0  11.6 0  C 13.7347222222222 0  15.5572916666667 0.655691964285717  17.0677083333333 1.96707589285714  Z M 37.2015625 9.66489955357143  C 39.4671875 11.6319754464286  40.6 14.0055803571429  40.6 16.7857142857143  C 40.6 19.5658482142857  39.4671875 21.939453125  37.2015625 23.9065290178571  C 34.9359375 25.8736049107143  32.2020833333333 26.8571428571429  29 26.8571428571429  C 25.7979166666667 26.8571428571429  23.0640625 25.8736049107143  20.7984375 23.9065290178571  C 18.5328125 21.939453125  17.4 19.5658482142857  17.4 16.7857142857143  C 17.4 14.0055803571429  18.5328125 11.6319754464286  20.7984375 9.66489955357143  C 23.0640625 7.69782366071428  25.7979166666667 6.71428571428572  29 6.71428571428572  C 32.2020833333333 6.71428571428572  34.9359375 7.69782366071428  37.2015625 9.66489955357143  Z M 54.2541666666667 13.4285714285714  C 56.7513888888889 13.4285714285714  58 16.5146949404762  58 22.6869419642857  C 58 24.05078125  57.4361111111111 25.0867745535714  56.3083333333333 25.794921875  C 55.1805555555556 26.5030691964286  53.7909722222222 26.8571428571429  52.1395833333333 26.8571428571429  L 48.0916666666667 26.8571428571429  C 46.0173611111111 24.7064732142857  43.3489583333333 23.5874255952381  40.0864583333333 23.5  C 41.7177083333333 21.4542410714286  42.5333333333333 19.2161458333333  42.5333333333333 16.7857142857143  C 42.5333333333333 16.2786458333333  42.4829861111111 15.7016369047619  42.3822916666667 15.0546875  C 43.7114583333333 15.4568452380952  45.0506944444444 15.6579241071429  46.4 15.6579241071429  C 47.5881944444444 15.6579241071429  48.7864583333333 15.469959077381  49.9947916666667 15.0940290178571  C 51.203125 14.7180989583333  52.1848958333333 14.3465401785714  52.9401041666667 13.9793526785714  C 53.6953125 13.6121651785714  54.1333333333333 13.4285714285714  54.2541666666667 13.4285714285714  Z M 51.8677083333333 1.96707589285714  C 53.378125 3.27845982142857  54.1333333333333 4.86086309523809  54.1333333333333 6.71428571428572  C 54.1333333333333 8.56770833333333  53.378125 10.1501116071429  51.8677083333333 11.4614955357143  C 50.3572916666667 12.7728794642857  48.5347222222222 13.4285714285714  46.4 13.4285714285714  C 44.2652777777778 13.4285714285714  42.4427083333333 12.7728794642857  40.9322916666667 11.4614955357143  C 39.421875 10.1501116071429  38.6666666666667 8.56770833333333  38.6666666666667 6.71428571428572  C 38.6666666666667 4.86086309523809  39.421875 3.27845982142857  40.9322916666667 1.96707589285714  C 42.4427083333333 0.655691964285717  44.2652777777778 0  46.4 0  C 48.5347222222222 0  50.3572916666667 0.655691964285717  51.8677083333333 1.96707589285714  Z " fill-rule="nonzero" fill="#0c0a62" stroke="none" transform="matrix(1 0 0 1 18 533 )" />
  </g>
</svg>