<?xml version="1.0" encoding="utf-8"?>
<svg version="1.1" xmlns:xlink="http://www.w3.org/1999/xlink" width="41px" height="39px" xmlns="http://www.w3.org/2000/svg">
  <g transform="matrix(1 0 0 1 -35 -167 )">
    <path d="M 10.9333333333333 13.9285714285714  C 10.9333333333333 15.9453125  11.5098958333333 17.8024553571429  12.6630208333333 19.5  C 10.3567708333333 19.5725446428571  8.47048611111111 20.5011160714286  7.00416666666667 22.2857142857143  L 4.14270833333333 22.2857142857143  C 2.97534722222222 22.2857142857143  1.99305555555556 21.9919084821429  1.19583333333333 21.404296875  C 0.398611111111111 20.8166852678571  0 19.95703125  0 18.8253348214286  C 0 13.7036830357143  0.882638888888889 11.1428571428571  2.64791666666667 11.1428571428571  C 2.73333333333333 11.1428571428571  3.04296875 11.2952008928571  3.57682291666667 11.5998883928571  C 4.11067708333333 11.9045758928571  4.8046875 12.212890625  5.65885416666667 12.5248325892857  C 6.51302083333333 12.8367745535714  7.36006944444444 12.9927455357143  8.2 12.9927455357143  C 9.15381944444444 12.9927455357143  10.1005208333333 12.8258928571429  11.0401041666667 12.4921875  C 10.9689236111111 13.0290178571429  10.9333333333333 13.5078125  10.9333333333333 13.9285714285714  Z M 35.45859375 31.1107700892857  C 35.5084201388889 31.8434709821429  35.5333333333333 32.5943080357143  35.5333333333333 33.36328125  C 35.5333333333333 35.1043526785714  35.0137152777778 36.4790736607143  33.9744791666667 37.4874441964286  C 32.9352430555556 38.4958147321429  31.5543402777778 39  29.8317708333333 39  L 11.1682291666667 39  C 9.44565972222222 39  8.06475694444445 38.4958147321429  7.02552083333333 37.4874441964286  C 5.98628472222222 36.4790736607143  5.46666666666667 35.1043526785714  5.46666666666667 33.36328125  C 5.46666666666667 32.5943080357143  5.49157986111111 31.8434709821429  5.54140625 31.1107700892857  C 5.59123263888889 30.3780691964286  5.69088541666667 29.5873325892857  5.84036458333333 28.7385602678571  C 5.98984375 27.8897879464286  6.17847222222222 27.1026785714286  6.40625 26.3772321428571  C 6.63402777777778 25.6517857142857  6.94010416666667 24.9444754464286  7.32447916666667 24.2553013392857  C 7.70885416666667 23.5661272321429  8.15017361111111 22.978515625  8.6484375 22.4924665178571  C 9.14670138888889 22.0064174107143  9.75529513888889 21.6183035714286  10.47421875 21.328125  C 11.1931423611111 21.0379464285714  11.9868055555556 20.8928571428571  12.8552083333333 20.8928571428571  C 12.9975694444444 20.8928571428571  13.3036458333333 21.048828125  13.7734375 21.3607700892857  C 14.2432291666667 21.6727120535714  14.7628472222222 22.0209263392857  15.3322916666667 22.4054129464286  C 15.9017361111111 22.7898995535714  16.6633680555556 23.1381138392857  17.6171875 23.4500558035714  C 18.5710069444444 23.7619977678571  19.5319444444444 23.91796875  20.5 23.91796875  C 21.4680555555556 23.91796875  22.4289930555556 23.7619977678571  23.3828125 23.4500558035714  C 24.3366319444444 23.1381138392857  25.0982638888889 22.7898995535714  25.6677083333333 22.4054129464286  C 26.2371527777778 22.0209263392857  26.7567708333333 21.6727120535714  27.2265625 21.3607700892857  C 27.6963541666667 21.048828125  28.0024305555556 20.8928571428571  28.1447916666667 20.8928571428571  C 29.0131944444444 20.8928571428571  29.8068576388889 21.0379464285714  30.52578125 21.328125  C 31.2447048611111 21.6183035714286  31.8532986111111 22.0064174107143  32.3515625 22.4924665178571  C 32.8498263888889 22.978515625  33.2911458333333 23.5661272321429  33.6755208333333 24.2553013392857  C 34.0598958333333 24.9444754464286  34.3659722222222 25.6517857142857  34.59375 26.3772321428571  C 34.8215277777778 27.1026785714286  35.01015625 27.8897879464286  35.1596354166667 28.7385602678571  C 35.3091145833333 29.5873325892857  35.4087673611111 30.3780691964286  35.45859375 31.1107700892857  Z M 12.0651041666667 1.63225446428572  C 13.1328125 2.72042410714286  13.6666666666667 4.03348214285714  13.6666666666667 5.57142857142857  C 13.6666666666667 7.109375  13.1328125 8.42243303571428  12.0651041666667 9.51060267857143  C 10.9973958333333 10.5987723214286  9.70902777777778 11.1428571428571  8.2 11.1428571428571  C 6.69097222222222 11.1428571428571  5.40260416666667 10.5987723214286  4.33489583333333 9.51060267857143  C 3.2671875 8.42243303571428  2.73333333333333 7.109375  2.73333333333333 5.57142857142857  C 2.73333333333333 4.03348214285714  3.2671875 2.72042410714286  4.33489583333333 1.63225446428572  C 5.40260416666667 0.544084821428573  6.69097222222222 0  8.2 0  C 9.70902777777778 0  10.9973958333333 0.544084821428573  12.0651041666667 1.63225446428572  Z M 26.29765625 8.01981026785714  C 27.89921875 9.65206473214286  28.7 11.6216517857143  28.7 13.9285714285714  C 28.7 16.2354910714286  27.89921875 18.205078125  26.29765625 19.8373325892857  C 24.69609375 21.4695870535714  22.7635416666667 22.2857142857143  20.5 22.2857142857143  C 18.2364583333333 22.2857142857143  16.30390625 21.4695870535714  14.70234375 19.8373325892857  C 13.10078125 18.205078125  12.3 16.2354910714286  12.3 13.9285714285714  C 12.3 11.6216517857143  13.10078125 9.65206473214286  14.70234375 8.01981026785714  C 16.30390625 6.38755580357143  18.2364583333333 5.57142857142857  20.5 5.57142857142857  C 22.7635416666667 5.57142857142857  24.69609375 6.38755580357143  26.29765625 8.01981026785714  Z M 38.3520833333333 11.1428571428571  C 40.1173611111111 11.1428571428571  41 13.7036830357143  41 18.8253348214286  C 41 19.95703125  40.6013888888889 20.8166852678571  39.8041666666667 21.404296875  C 39.0069444444445 21.9919084821429  38.0246527777778 22.2857142857143  36.8572916666667 22.2857142857143  L 33.9958333333333 22.2857142857143  C 32.5295138888889 20.5011160714286  30.6432291666667 19.5725446428571  28.3369791666667 19.5  C 29.4901041666667 17.8024553571429  30.0666666666667 15.9453125  30.0666666666667 13.9285714285714  C 30.0666666666667 13.5078125  30.0310763888889 13.0290178571429  29.9598958333333 12.4921875  C 30.8994791666667 12.8258928571429  31.8461805555556 12.9927455357143  32.8 12.9927455357143  C 33.6399305555556 12.9927455357143  34.4869791666667 12.8367745535714  35.3411458333333 12.5248325892857  C 36.1953125 12.212890625  36.8893229166667 11.9045758928571  37.4231770833333 11.5998883928571  C 37.95703125 11.2952008928571  38.2666666666667 11.1428571428571  38.3520833333333 11.1428571428571  Z M 36.6651041666667 1.63225446428572  C 37.7328125 2.72042410714286  38.2666666666667 4.03348214285714  38.2666666666667 5.57142857142857  C 38.2666666666667 7.109375  37.7328125 8.42243303571428  36.6651041666667 9.51060267857143  C 35.5973958333333 10.5987723214286  34.3090277777778 11.1428571428571  32.8 11.1428571428571  C 31.2909722222222 11.1428571428571  30.0026041666667 10.5987723214286  28.9348958333333 9.51060267857143  C 27.8671875 8.42243303571428  27.3333333333333 7.109375  27.3333333333333 5.57142857142857  C 27.3333333333333 4.03348214285714  27.8671875 2.72042410714286  28.9348958333333 1.63225446428572  C 30.0026041666667 0.544084821428573  31.2909722222222 0  32.8 0  C 34.3090277777778 0  35.5973958333333 0.544084821428573  36.6651041666667 1.63225446428572  Z " fill-rule="nonzero" fill="#000000" stroke="none" transform="matrix(1 0 0 1 35 167 )" />
  </g>
</svg>