<?xml version="1.0" encoding="utf-8"?>
<svg version="1.1" xmlns:xlink="http://www.w3.org/1999/xlink" width="183px" height="28px" xmlns="http://www.w3.org/2000/svg">
  <defs>
    <mask fill="white" id="clip134">
      <path d="M 0 28  L 0 0  L 183 0  L 183 15.3125  L 183 23.6458333333333  L 183 28  L 0 28  Z " fill-rule="evenodd" />
    </mask>
  </defs>
  <g transform="matrix(1 0 0 1 -190 -201 )">
    <path d="M 0 28  L 0 0  L 183 0  L 183 15.3125  L 183 23.6458333333333  L 183 28  L 0 28  Z " fill-rule="nonzero" fill="#eaefff" stroke="none" transform="matrix(1 0 0 1 190 201 )" />
    <path d="M 0 28  L 0 0  L 183 0  L 183 15.3125  L 183 23.6458333333333  L 183 28  L 0 28  Z " stroke-width="2" stroke="#eaefff" fill="none" transform="matrix(1 0 0 1 190 201 )" mask="url(#clip134)" />
  </g>
</svg>