<?xml version="1.0" encoding="utf-8"?>
<svg version="1.1" xmlns:xlink="http://www.w3.org/1999/xlink" width="30px" height="18px" xmlns="http://www.w3.org/2000/svg">
  <defs>
    <filter x="17px" y="360px" width="30px" height="18px" filterUnits="userSpaceOnUse" id="filter136">
      <feOffset dx="0" dy="1" in="SourceAlpha" result="shadowOffsetInner" />
      <feGaussianBlur stdDeviation="0.5" in="shadowOffsetInner" result="shadowGaussian" />
      <feComposite in2="shadowGaussian" operator="atop" in="SourceAlpha" result="shadowComposite" />
      <feColorMatrix type="matrix" values="0 0 0 0 0  0 0 0 0 0  0 0 0 0 0  0 0 0 0.313725490196078 0  " in="shadowComposite" />
    </filter>
    <g id="widget137">
      <path d="M 0.697265625 11.10625  C 0.232421875 10.11875  0 9.08333333333333  0 8  C 0 6.91666666666667  0.232421875 5.88125  0.697265625 4.89375  C 1.162109375 3.90625  1.7841796875 3.05625  2.5634765625 2.34375  C 3.3427734375 1.63125  4.2724609375 1.0625  5.3525390625 0.637499999999999  C 6.4326171875 0.2125  7.56510416666667 0  8.75 0  L 19.25 0  C 20.4348958333333 0  21.5673828125 0.2125  22.6474609375 0.637499999999999  C 23.7275390625 1.0625  24.6572265625 1.63125  25.4365234375 2.34375  C 26.2158203125 3.05625  26.837890625 3.90625  27.302734375 4.89375  C 27.767578125 5.88125  28 6.91666666666667  28 8  C 28 9.08333333333333  27.767578125 10.11875  27.302734375 11.10625  C 26.837890625 12.09375  26.2158203125 12.94375  25.4365234375 13.65625  C 24.6572265625 14.36875  23.7275390625 14.9375  22.6474609375 15.3625  C 21.5673828125 15.7875  20.4348958333333 16  19.25 16  L 8.75 16  C 7.56510416666667 16  6.4326171875 15.7875  5.3525390625 15.3625  C 4.2724609375 14.9375  3.3427734375 14.36875  2.5634765625 13.65625  C 1.7841796875 12.94375  1.162109375 12.09375  0.697265625 11.10625  Z M 16.5361328125 13.89375  C 17.3974609375 14.23125  18.3020833333333 14.4  19.25 14.4  C 20.1979166666667 14.4  21.1025390625 14.23125  21.9638671875 13.89375  C 22.8251953125 13.55625  23.5703125 13.1  24.19921875 12.525  C 24.828125 11.95  25.3271484375 11.26875  25.6962890625 10.48125  C 26.0654296875 9.69375  26.25 8.86666666666667  26.25 8  C 26.25 7.13333333333333  26.0654296875 6.30625  25.6962890625 5.51875  C 25.3271484375 4.73125  24.828125 4.05  24.19921875 3.475  C 23.5703125 2.9  22.8251953125 2.44375  21.9638671875 2.10625  C 21.1025390625 1.76875  20.1979166666667 1.6  19.25 1.6  C 18.3020833333333 1.6  17.3974609375 1.76875  16.5361328125 2.10625  C 15.6748046875 2.44375  14.9296875 2.9  14.30078125 3.475  C 13.671875 4.05  13.1728515625 4.73125  12.8037109375 5.51875  C 12.4345703125 6.30625  12.25 7.13333333333333  12.25 8  C 12.25 8.86666666666667  12.4345703125 9.69375  12.8037109375 10.48125  C 13.1728515625 11.26875  13.671875 11.95  14.30078125 12.525  C 14.9296875 13.1  15.6748046875 13.55625  16.5361328125 13.89375  Z " fill-rule="nonzero" fill="#08a000" stroke="none" transform="matrix(1 0 0 1 18 360 )" />
    </g>
  </defs>
  <g transform="matrix(1 0 0 1 -17 -360 )">
    <use xlink:href="#widget137" filter="url(#filter136)" />
    <use xlink:href="#widget137" />
  </g>
</svg>